<svg width="75" height="75" viewBox="0 0 75 75" fill="none" xmlns="http://www.w3.org/2000/svg">
<circle cx="37.5" cy="37.5" r="37.5" fill="#01105F"/>
<circle cx="37.5" cy="37.5" r="37.5" fill="url(#paint0_linear)"/>
<path d="M18 59.6596V51.8298M28.5785 39.5745C31.8843 41.7305 40.1488 44.7489 46.7603 39.5745M28.5785 39.5745L30.2314 36.8511M28.5785 39.5745C23.5433 40.3847 20.755 42.8418 19.3223 45.2969M46.7603 39.5745L45.1074 36.8511M46.7603 39.5745C49.6143 40.0931 54.6425 41.9551 56.8762 45.7021M58 59.6596C58 59.1553 58 56.9119 58 51.8298M30.2314 36.8511C32.876 38.7801 40.1739 40.3636 45.1074 36.8511M30.2314 36.8511C28.7025 36.2027 25.8816 33.8914 24.7524 29.3617M45.1074 36.8511C46.6364 36.2027 49.4573 33.8914 50.5864 29.3617M50.5864 29.3617H53.3636C53.9159 29.3617 54.3636 28.914 54.3636 28.3617V23.2128C54.3636 22.6605 53.9159 22.2128 53.3636 22.2128H50.7739M50.5864 29.3617C50.7451 28.7252 50.8704 28.0448 50.954 27.3191M50.7739 22.2128C49.5028 15.8822 44.3053 12 38.1653 12C32.0253 12 26.1209 15.8822 24.6296 22.2128M50.7739 22.2128C50.9055 22.8679 50.995 23.5493 51.0391 24.2553M24.7524 29.3617H22.3058C21.7535 29.3617 21.3058 28.914 21.3058 28.3617V23.2128C21.3058 22.6605 21.7535 22.2128 22.3058 22.2128H24.6296M24.7524 29.3617C24.5937 28.7252 24.4685 28.0448 24.3849 27.3191M24.6296 22.2128C24.4752 22.8679 24.3682 23.5493 24.313 24.2553M19.3223 45.2969C18.3471 46.968 18 48.6382 18 49.7872V51.8298M19.3223 45.2969H22.6198C23.1721 45.2969 23.6198 45.7446 23.6198 46.2969V50.8298C23.6198 51.3821 23.1721 51.8298 22.6198 51.8298H18M56.8762 45.7021C57.5747 46.8739 58 48.2301 58 49.7872C58 50.5139 58 51.1941 58 51.8298M56.8762 45.7021H52.719C52.1667 45.7021 51.719 46.1498 51.719 46.7021V50.8298C51.719 51.3821 52.1667 51.8298 52.719 51.8298H58M48.4132 53.1915V59.6596M27.2562 53.1915V60M24.313 24.2553C24.2698 24.8079 24.2584 25.3755 24.281 25.9574C24.2993 26.428 24.3345 26.8818 24.3849 27.3191M24.313 24.2553H26.9256M26.9256 24.2553C27.0358 20.8511 29.438 14.0426 38.1653 14.0426C46.8926 14.0426 48.854 20.8511 48.7438 24.2553M26.9256 24.2553V27.3191M48.7438 24.2553H51.0391M48.7438 24.2553V27.3191M51.0391 24.2553C51.0737 24.8079 51.0805 25.3755 51.0579 25.9574C51.0396 26.428 51.0043 26.8818 50.954 27.3191M50.954 27.3191H48.7438M48.7438 27.3191C48.4132 32.0727 44.5217 36.8511 37.5652 36.8511C30.6838 36.8511 27.5652 31.2 26.9256 27.3191M26.9256 27.3191H24.3849M32.8843 45.7021H42.7851C43.3374 45.7021 43.7851 46.1498 43.7851 46.7021V56.9574C43.7851 57.5097 43.3374 57.9574 42.7851 57.9574H32.8843C32.332 57.9574 31.8843 57.5097 31.8843 56.9574V46.7021C31.8843 46.1498 32.332 45.7021 32.8843 45.7021Z" stroke="white"/>
<path d="M18 59.6596V51.8298M28.5785 39.5745C31.8843 41.7305 40.1488 44.7489 46.7603 39.5745M28.5785 39.5745L30.2314 36.8511M28.5785 39.5745C23.5433 40.3847 20.755 42.8418 19.3223 45.2969M46.7603 39.5745L45.1074 36.8511M46.7603 39.5745C49.6143 40.0931 54.6425 41.9551 56.8762 45.7021M58 59.6596C58 59.1553 58 56.9119 58 51.8298M30.2314 36.8511C32.876 38.7801 40.1739 40.3636 45.1074 36.8511M30.2314 36.8511C28.7025 36.2027 25.8816 33.8914 24.7524 29.3617M45.1074 36.8511C46.6364 36.2027 49.4573 33.8914 50.5864 29.3617M50.5864 29.3617H53.3636C53.9159 29.3617 54.3636 28.914 54.3636 28.3617V23.2128C54.3636 22.6605 53.9159 22.2128 53.3636 22.2128H50.7739M50.5864 29.3617C50.7451 28.7252 50.8704 28.0448 50.954 27.3191M50.7739 22.2128C49.5028 15.8822 44.3053 12 38.1653 12C32.0253 12 26.1209 15.8822 24.6296 22.2128M50.7739 22.2128C50.9055 22.8679 50.995 23.5493 51.0391 24.2553M24.7524 29.3617H22.3058C21.7535 29.3617 21.3058 28.914 21.3058 28.3617V23.2128C21.3058 22.6605 21.7535 22.2128 22.3058 22.2128H24.6296M24.7524 29.3617C24.5937 28.7252 24.4685 28.0448 24.3849 27.3191M24.6296 22.2128C24.4752 22.8679 24.3682 23.5493 24.313 24.2553M19.3223 45.2969C18.3471 46.968 18 48.6382 18 49.7872V51.8298M19.3223 45.2969H22.6198C23.1721 45.2969 23.6198 45.7446 23.6198 46.2969V50.8298C23.6198 51.3821 23.1721 51.8298 22.6198 51.8298H18M56.8762 45.7021C57.5747 46.8739 58 48.2301 58 49.7872C58 50.5139 58 51.1941 58 51.8298M56.8762 45.7021H52.719C52.1667 45.7021 51.719 46.1498 51.719 46.7021V50.8298C51.719 51.3821 52.1667 51.8298 52.719 51.8298H58M48.4132 53.1915V59.6596M27.2562 53.1915V60M24.313 24.2553C24.2698 24.8079 24.2584 25.3755 24.281 25.9574C24.2993 26.428 24.3345 26.8818 24.3849 27.3191M24.313 24.2553H26.9256M26.9256 24.2553C27.0358 20.8511 29.438 14.0426 38.1653 14.0426C46.8926 14.0426 48.854 20.8511 48.7438 24.2553M26.9256 24.2553V27.3191M48.7438 24.2553H51.0391M48.7438 24.2553V27.3191M51.0391 24.2553C51.0737 24.8079 51.0805 25.3755 51.0579 25.9574C51.0396 26.428 51.0043 26.8818 50.954 27.3191M50.954 27.3191H48.7438M48.7438 27.3191C48.4132 32.0727 44.5217 36.8511 37.5652 36.8511C30.6838 36.8511 27.5652 31.2 26.9256 27.3191M26.9256 27.3191H24.3849M32.8843 45.7021H42.7851C43.3374 45.7021 43.7851 46.1498 43.7851 46.7021V56.9574C43.7851 57.5097 43.3374 57.9574 42.7851 57.9574H32.8843C32.332 57.9574 31.8843 57.5097 31.8843 56.9574V46.7021C31.8843 46.1498 32.332 45.7021 32.8843 45.7021Z" stroke="url(#paint1_linear)" stroke-opacity="0.5"/>
<defs>
<linearGradient id="paint0_linear" x1="37.5" y1="0" x2="37.5" y2="75" gradientUnits="userSpaceOnUse">
<stop stop-color="#02188D"/>
<stop offset="1" stop-color="#010F5E"/>
</linearGradient>
<linearGradient id="paint1_linear" x1="38" y1="12" x2="38" y2="60" gradientUnits="userSpaceOnUse">
<stop stop-color="white"/>
<stop offset="1" stop-color="#212D72"/>
</linearGradient>
</defs>
</svg>
