<svg width="256" height="189" viewBox="0 0 256 189" fill="none" xmlns="http://www.w3.org/2000/svg">
<path d="M150.861 75.0529L119.96 87.0235C119.96 87.0235 97.6219 95.1607 94.5158 114.381C91.4096 133.61 85.9339 163.923 85.9339 163.923L44.8174 171.758V188.326H230.45L228.915 147.32L251.572 145.776C246.646 114.239 241.099 89.242 207.668 81.2556L177.37 73.571L150.861 75.0529Z" fill="#FF1F38"/>
<path d="M144.205 77.7949C144.205 77.7949 142.812 99.8194 164.111 98.7102C185.41 97.601 184.186 75.2126 184.186 75.2126" stroke="#D01227" stroke-width="1.5" stroke-miterlimit="10" stroke-linecap="round" stroke-linejoin="round"/>
<path d="M120.954 150.399L88.6141 148.882C87.0788 157.596 85.9339 163.932 85.9339 163.932L44.8174 171.767V188.334H120.758L120.954 150.399Z" fill="#FFA189"/>
<path d="M88.623 148.882L120.954 150.399V158.27L88.623 148.882Z" fill="#F8756A"/>
<path d="M189.511 22.8401C188.073 15.2975 180.743 14.8538 180.743 14.8538C181.63 9.08588 175.968 4.75552 167.209 5.64289C158.449 6.53026 156.222 1.75621 146.246 0.540514C136.262 -0.675182 131.825 8.97052 134.159 17.294C136.493 25.6176 146.246 26.3896 146.246 26.3896L147.027 54.0134L171.318 54.6789C177.627 54.6789 182.748 49.8871 182.748 43.9772C182.748 43.0544 182.615 42.167 182.375 41.3151C187.248 36.4257 190.514 28.049 189.511 22.8401Z" fill="#00184C"/>
<path d="M178.417 33.4885C175.498 33.4885 172.995 35.281 171.957 37.8278C169.844 35.8844 167.919 32.5302 167.768 26.7268C167.768 26.7268 159.541 30.3029 156.452 27.2769C153.24 24.1179 153.453 19.9561 153.453 19.9561C153.453 19.9561 150.551 26.0612 143.54 24.1179L140.735 49.7629C140.735 49.7629 138.454 61.2011 151.926 63.6857L150.568 78.0788C150.568 78.0788 149.69 91.1054 161.067 91.6112C177.636 92.3477 177.636 78.0788 177.636 78.0788L175.24 46.6926C176.19 47.1806 177.273 47.4646 178.417 47.4646C182.278 47.4646 185.411 44.3322 185.411 40.4721C185.411 36.6121 182.278 33.4885 178.417 33.4885Z" fill="#FFA189"/>
<path d="M167.768 26.7179C167.768 26.7179 159.541 30.294 156.452 27.2681C153.24 24.109 153.453 19.9473 153.453 19.9473C153.453 19.9473 150.551 26.0524 143.54 24.109C143.54 24.109 147.906 27.41 152.938 26.079C152.938 26.079 156.346 33.0271 163.002 32.1397C163.002 32.1397 166.862 38.7418 171.956 37.81C169.844 35.8755 167.918 32.5213 167.768 26.7179Z" fill="#F8756A"/>
<path d="M151.935 63.6857C151.935 63.6857 163.889 65.5403 168.433 54.67C168.433 54.67 167.492 68.9035 151.323 70.1103L151.935 63.6857Z" fill="#F8756A"/>
<path d="M174.539 41.6967L181.745 37.9254" stroke="#F8756A" stroke-width="1.5" stroke-miterlimit="10" stroke-linecap="round" stroke-linejoin="round"/>
<path d="M149.965 34.7042L145.297 42.309C144.72 43.2585 145.137 44.4919 146.176 44.8912L149.965 46.3465" stroke="#F8756A" stroke-width="1.5" stroke-miterlimit="10" stroke-linecap="round" stroke-linejoin="round"/>
<path d="M147.507 49.7895C147.507 49.7895 152.903 51.4578 155.902 48.2366" stroke="#F8756A" stroke-width="1.5" stroke-miterlimit="10" stroke-linecap="round" stroke-linejoin="round"/>
<path d="M145.403 35.1834C146.08 35.1834 146.628 34.4127 146.628 33.4619C146.628 32.5112 146.08 31.7404 145.403 31.7404C144.727 31.7404 144.179 32.5112 144.179 33.4619C144.179 34.4127 144.727 35.1834 145.403 35.1834Z" fill="#00184C"/>
<path d="M157.42 37.0291C158.096 37.0291 158.644 36.2584 158.644 35.3076C158.644 34.3569 158.096 33.5862 157.42 33.5862C156.743 33.5862 156.195 34.3569 156.195 35.3076C156.195 36.2584 156.743 37.0291 157.42 37.0291Z" fill="#00184C"/>
<path d="M155.618 29.8769C155.618 29.8769 159.39 28.7677 161.662 32.2018" stroke="#00184C" stroke-width="3" stroke-miterlimit="10" stroke-linecap="round" stroke-linejoin="round"/>
<path d="M142.59 28.9363C142.59 28.9363 144.774 28.0401 147.507 28.9363" stroke="#00184C" stroke-width="3" stroke-miterlimit="10" stroke-linecap="round" stroke-linejoin="round"/>
<path d="M120.625 187.447L121.291 128.215" stroke="#D01227" stroke-width="1.5" stroke-miterlimit="10" stroke-linecap="round" stroke-linejoin="round"/>
<path d="M89.8032 142.156L121.113 143.744" stroke="#D01227" stroke-width="1.5" stroke-miterlimit="10" stroke-linecap="round" stroke-linejoin="round"/>
<path d="M164.333 170.436L143.327 159.939C143.327 159.939 140.07 157.72 135.632 161.119C131.195 164.517 118.176 176.799 112.265 177.384C112.265 177.384 110.047 182.265 116.995 182.265C116.995 182.265 119.809 185.522 125.276 183.152C125.276 183.152 128.825 185.814 133.857 182.709C133.857 182.709 137.114 184.927 142.439 183.596L149.539 181.378C149.539 181.378 154.713 187.589 164.333 188.326H232.819C232.819 188.326 258.263 186.551 255.006 165.254C252.29 147.453 251.58 145.767 251.58 145.767L213.144 148.394L214.422 159.903L164.333 170.436Z" fill="#FFA189"/>
<path d="M213.135 148.403L251.572 145.776L252.805 151.739L213.135 148.403Z" fill="#F8756A"/>
<path d="M214.413 159.912C214.413 159.912 222.684 158.599 229.003 163.373" stroke="#F8756A" stroke-width="1.5" stroke-miterlimit="10" stroke-linecap="round" stroke-linejoin="round"/>
<path d="M164.333 170.436L169.88 173.027" stroke="#F8756A" stroke-width="1.5" stroke-miterlimit="10" stroke-linecap="round" stroke-linejoin="round"/>
<path d="M149.539 181.377L155.121 179.124C155.121 179.124 160.002 185.557 166.321 184.341" stroke="#F8756A" stroke-width="1.5" stroke-miterlimit="10" stroke-linecap="round" stroke-linejoin="round"/>
<path d="M133.857 182.709L147.356 174.465" stroke="#F8756A" stroke-width="1.5" stroke-miterlimit="10" stroke-linecap="round" stroke-linejoin="round"/>
<path d="M125.284 183.152L140.611 170.915" stroke="#F8756A" stroke-width="1.5" stroke-miterlimit="10" stroke-linecap="round" stroke-linejoin="round"/>
<path d="M116.996 182.265L134.603 168.697" stroke="#F8756A" stroke-width="1.5" stroke-miterlimit="10" stroke-linecap="round" stroke-linejoin="round"/>
<path d="M213.135 148.403L209.594 124.666" stroke="#492994" stroke-width="1.5" stroke-miterlimit="10" stroke-linecap="round" stroke-linejoin="round"/>
<path d="M212.203 142.156L250.356 138.313" stroke="#492994" stroke-width="1.5" stroke-miterlimit="10" stroke-linecap="round" stroke-linejoin="round"/>
<path d="M149.024 181.306H66.2676V188.334H149.024V181.306Z" fill="#1574DD"/>
<path d="M106.035 188.334H17.7494L0 118.818H88.2857L106.035 188.334Z" fill="#B5E1FF"/>
<path d="M88.2855 118.818H82.0732L99.8227 188.334H106.035L88.2855 118.818Z" fill="#1574DD"/>
<path d="M47.3058 159.135C50.159 158.423 51.7258 154.858 50.8055 151.173C49.8851 147.488 46.826 145.078 43.9728 145.791C41.1196 146.503 39.5528 150.068 40.4732 153.753C41.3935 157.438 44.4526 159.848 47.3058 159.135Z" fill="#FCFBFF"/>
</svg>
