<svg width="273" height="218" viewBox="0 0 273 218" fill="none" xmlns="http://www.w3.org/2000/svg">
<path d="M154.851 0C176.114 9.76106 175.893 37.2695 175.227 42.3009C175.227 42.3009 201.47 82.6851 142.169 86.9178C142.169 86.9178 117.985 91.8516 102.454 74.9916C86.9236 58.1316 110.663 33.5337 110.663 33.5337C110.663 33.5337 98.017 21.7494 104.007 10.4355C104.007 10.4355 109.927 2.2273 120.834 7.55151" fill="black"/>
<path d="M119.769 118.686L115.776 130.443L82.4953 96.0577C82.4953 96.0577 84.0484 90.139 81.0931 83.9274C78.1378 77.7158 80.0548 70.6169 80.0548 70.6169C80.0548 70.6169 76.9486 69.1349 74.8808 71.9479L71.7303 81.8864L44.3252 74.6633C43.8193 74.5035 43.3046 74.4148 42.7721 74.3882C40.9528 74.3083 36.9592 74.468 36.2847 77.423C36.2847 77.423 31.2527 75.7547 28.4128 80.1383L31.2527 81.4161C31.2527 81.4161 26.7976 81.8421 25.7593 84.797L29.1938 87.4503C29.1938 87.4503 31.5811 91.7806 33.7643 93.2448C40.8019 97.9567 64.0892 102.713 67.4172 106.484L97.6001 157.757C101.922 165.104 107.717 171.724 116.148 172.966C121.801 173.8 130.383 172.221 134.634 166.382C146.402 150.232 152.606 136.211 152.606 136.211L119.769 118.686Z" fill="#FFA189"/>
<path d="M115.775 130.443L125.901 141.163" stroke="#F8756A" stroke-width="1.5" stroke-miterlimit="10" stroke-linecap="round" stroke-linejoin="round"/>
<path d="M143.855 131.544L139.072 160.028C139.072 160.028 149.429 142.742 152.606 136.22L143.855 131.544Z" fill="#F8756A"/>
<path d="M36.2671 77.423L54.6111 83.3417" stroke="#F8756A" stroke-width="1.5" stroke-miterlimit="10" stroke-linecap="round" stroke-linejoin="round"/>
<path d="M31.2437 81.4161L51.6555 87.6277" stroke="#F8756A" stroke-width="1.5" stroke-miterlimit="10" stroke-linecap="round" stroke-linejoin="round"/>
<path d="M28.4038 86.9089L48.8423 92.5082" stroke="#F8756A" stroke-width="1.5" stroke-miterlimit="10" stroke-linecap="round" stroke-linejoin="round"/>
<path d="M59.5273 92.5083C59.5273 92.5083 69.7333 86.9622 73.8334 96.9451" stroke="#F8756A" stroke-width="1.5" stroke-miterlimit="10" stroke-linecap="round" stroke-linejoin="round"/>
<path d="M243.935 110.699C243.935 110.699 264.196 113.069 271.598 136.211C278.99 159.354 254.736 217.334 254.736 217.334H157.407L193.5 152.113L243.935 110.699Z" fill="black"/>
<path d="M209.768 160.019L215.208 164.012L203.742 217.334" stroke="#013F81" stroke-width="1.5" stroke-miterlimit="10" stroke-linecap="round" stroke-linejoin="round"/>
<path d="M233.561 119.218L239.649 125.226C246.225 131.721 255.419 134.827 264.587 133.647L264.791 133.62" stroke="#013F81" stroke-width="1.5" stroke-miterlimit="10" stroke-linecap="round" stroke-linejoin="round"/>
<path d="M245.861 217.334C245.861 217.334 267.755 149.841 259.768 133.895" stroke="#013F81" stroke-width="1.5" stroke-miterlimit="10" stroke-linecap="round" stroke-linejoin="round"/>
<path d="M215.243 57.5193C211.081 52.2749 205.197 49.4354 200.121 47.8913C195.373 46.4449 190.367 46.0101 185.424 46.4183L170.133 47.6961L149.899 60.0128L142.435 64.006C136.746 67.0496 132.353 72.0899 130.294 78.2039C129.691 79.9875 129.132 82.0107 128.644 84.309C125.981 96.954 119.769 118.695 119.769 118.695L152.605 136.22L160.318 120.398C163.53 121.046 166.139 120.771 166.139 120.771C174.42 125.651 193.5 152.122 193.5 152.122L243.935 110.708C243.935 110.699 224.118 68.7001 215.243 57.5193Z" fill="#439CFF"/>
<path d="M160.309 120.389C160.309 120.389 151.567 120.283 150.014 112.776C148.275 104.381 145.284 97.5396 145.284 97.5396C145.284 97.5396 147.396 125.119 143.855 131.544L152.605 136.211L160.309 120.389Z" fill="#013F81"/>
<path d="M170.133 47.6961L153.91 39.6477C156.386 38.707 158.152 36.1869 158.152 33.2231C158.152 29.4518 155.294 26.3992 151.771 26.3992C148.248 26.3992 145.39 29.4518 145.39 33.2231C145.39 33.4006 145.399 33.5692 145.417 33.7378C145.328 33.6579 145.239 33.5869 145.151 33.5071C137.634 32.4955 122.893 14.5262 122.893 14.5174C121.499 16.1856 120.364 18.3774 120 21.217L120.293 28.7596L114.675 38.5207H119.778C119.778 38.5207 119.707 53.3131 126.807 56.8626C132.992 59.9595 138.956 57.8831 142.737 55.0435L149.916 60.0039C149.916 60.0039 152.108 78.0086 163.646 76.5267C177.801 74.7165 170.133 47.6961 170.133 47.6961Z" fill="#FFA189"/>
<path d="M142.923 32.8327C135.06 29.3631 122.884 14.5262 122.884 14.5174C121.633 16.017 120.594 17.9337 120.133 20.3651C126.114 24.3494 135.442 30.1439 142.923 32.8327Z" fill="#F8756A"/>
<path d="M142.719 55.0524C142.719 55.0524 147.28 50.1807 149.055 46.2763C149.055 46.2763 150.342 54.7596 148.594 59.1077L142.719 55.0524Z" fill="#F8756A"/>
<path d="M149.508 36.0449L153.714 29.6204" stroke="#F8756A" stroke-width="1.5" stroke-miterlimit="10" stroke-linecap="round" stroke-linejoin="round"/>
<path d="M125.759 42.9664L133.01 40.0115C133.01 40.0115 134.137 43.9336 130.312 45.1493C127.197 46.1343 125.759 42.9664 125.759 42.9664Z" fill="#FCFBFF"/>
<path d="M124.925 31.2265C125.601 31.2265 126.15 30.4558 126.15 29.505C126.15 28.5543 125.601 27.7835 124.925 27.7835C124.249 27.7835 123.7 28.5543 123.7 29.505C123.7 30.4558 124.249 31.2265 124.925 31.2265Z" fill="black"/>
<path d="M122.875 23.1604C122.875 23.1604 126.647 22.0511 128.919 25.4853" stroke="black" stroke-width="3" stroke-miterlimit="10" stroke-linecap="round" stroke-linejoin="round"/>
<path d="M186.551 114.249L186.995 126.672L149.056 174.368L123.026 184.804C121.056 185.593 119.405 187.004 118.323 188.823L105.792 209.863C105.792 209.863 109.892 212.081 113.779 208.754L112.226 211.966C112.226 211.966 118.101 213.403 120.994 210.298L119.663 212.853C119.663 212.853 122.547 214.184 126.993 213.182C126.993 213.182 132.416 213.182 134.528 211.079C137.971 207.644 143.181 199.986 143.181 199.986C143.181 199.986 151.718 200.767 155.383 195.443L159.04 190.119L206.883 158.706C214.205 153.896 218.846 145.937 219.423 137.205L220.941 114.249H186.551Z" fill="#FFA189"/>
<path d="M113.779 208.754L123.097 192.666" stroke="#F8756A" stroke-width="1.5" stroke-miterlimit="10" stroke-linecap="round" stroke-linejoin="round"/>
<path d="M120.985 210.306L129.309 194.671" stroke="#F8756A" stroke-width="1.5" stroke-miterlimit="10" stroke-linecap="round" stroke-linejoin="round"/>
<path d="M126.993 213.19L135.078 197.661" stroke="#F8756A" stroke-width="1.5" stroke-miterlimit="10" stroke-linecap="round" stroke-linejoin="round"/>
<path d="M186.551 114.249H220.941L220.515 120.602L186.551 114.249Z" fill="#F8756A"/>
<path d="M149.056 210.307H66.2988V217.334H149.056V210.307Z" fill="#1574DD"/>
<path d="M106.066 217.334H17.7807L0.03125 147.818H88.3169L106.066 217.334Z" fill="#B5E1FF"/>
<path d="M88.3168 147.818H82.1045L99.8539 217.334H106.066L88.3168 147.818Z" fill="#1574DD"/>
<path d="M47.3351 188.129C50.1883 187.417 51.7551 183.852 50.8347 180.167C49.9143 176.482 46.8553 174.072 44.0021 174.785C41.1489 175.497 39.5821 179.062 40.5025 182.747C41.4228 186.432 44.4819 188.842 47.3351 188.129Z" fill="#FCFBFF"/>
<path d="M186.551 114.249L184.554 72.9861" stroke="#013F81" stroke-width="1.5" stroke-miterlimit="10" stroke-linecap="round" stroke-linejoin="round"/>
<path d="M220.941 114.249V89.713" stroke="#013F81" stroke-width="1.5" stroke-miterlimit="10" stroke-linecap="round" stroke-linejoin="round"/>
</svg>
