<svg width="299" height="244" viewBox="0 0 299 244" fill="none" xmlns="http://www.w3.org/2000/svg">
<path d="M156.819 150.186L162.593 226.869" stroke="#001FC9" stroke-opacity="0.5" stroke-width="3"/>
<path d="M187.682 147.332C179.424 141.457 169.378 146.352 161.783 152.661C158.359 155.505 152.5 153.698 152.034 149.272C149.968 129.643 147.631 102.349 149.313 93.6343C151.897 80.2446 174.73 78.9596 193.509 85.9646C205.665 90.4989 226.249 78.4457 240.089 68.132C243.511 65.5817 248.594 67.9424 248.617 72.2101L248.907 126.563C248.913 127.711 248.535 128.835 247.764 129.686C235.527 143.202 202.201 157.66 187.682 147.332Z" fill="#3C39B3"/>
<path d="M182.258 85.02L186.703 145.241C186.742 145.776 186.995 146.278 187.418 146.608C198.179 155.001 214.304 150.411 223.568 145.877C224.312 145.513 224.728 144.716 224.633 143.893L217.81 84.9901C217.655 83.6494 216.24 82.8352 214.972 83.2974C208.821 85.5393 199.376 87.6263 195.457 85.9523C192.699 84.7743 188.004 83.6554 184.665 82.9217C183.363 82.6357 182.16 83.691 182.258 85.02Z" fill="#F7F7F7"/>
<path d="M249.011 129.424C244.224 135.442 233.568 142.082 226.569 145.141C225.389 145.657 224.094 144.854 223.946 143.575L217.116 84.6132C217.013 83.7209 217.513 82.8754 218.329 82.5005C226.107 78.9291 238.206 70.4318 245.625 64.6447C246.956 63.606 248.936 64.54 248.949 66.2286L249.413 128.226C249.416 128.66 249.282 129.084 249.011 129.424Z" fill="#FF1F38"/>
<path d="M123.665 152.07L160.917 219.116" stroke="#001FC9" stroke-opacity="0.5" stroke-width="3"/>
<g clip-path="url(#clip0)">
<path d="M9.13821 163.823C19.8068 182.302 30.4682 200.768 41.1368 219.246C77.0702 210.317 97.667 174.792 133.6 165.862C122.932 147.384 112.27 128.918 101.602 110.439C65.6684 119.369 45.0717 154.894 9.13821 163.823Z" fill="#2D2E83"/>
<path d="M9.13815 163.823C13.6193 162.709 17.8613 161.18 21.9294 159.351C33.737 161.471 44.7976 162.266 55.619 162.647C52.1981 156.721 48.7772 150.796 45.3635 144.883C52.1046 139.837 58.6427 134.438 65.3837 129.391C68.8336 135.367 72.2835 141.342 75.7262 147.305C79.7391 135.732 83.9919 124.607 89.034 114.816C93.0324 113.027 97.1975 111.526 101.602 110.439C102.559 112.096 103.508 113.741 104.465 115.398C100.201 121.391 96.467 128.334 93.0876 135.859C98.9675 132.665 105.195 130.04 111.944 128.353C115.713 134.881 119.482 141.408 123.251 147.936C116.494 149.611 110.267 152.236 104.394 155.442C112.767 156.566 121.488 158.26 130.738 160.904C131.694 162.561 132.644 164.205 133.6 165.862C129.203 166.962 125.031 168.45 121.033 170.24C109.091 168.079 97.9314 167.274 87.0326 166.888C90.4825 172.864 93.9324 178.839 97.375 184.802C90.634 189.849 84.0959 195.247 77.3549 200.294C73.9339 194.369 70.513 188.444 67.0994 182.531C63.1198 194.001 58.8938 205.044 53.9207 214.761C49.8599 216.603 45.6107 218.119 41.1295 219.234C40.2018 217.627 39.2813 216.033 38.3536 214.426C42.6651 208.355 46.4398 201.321 49.8526 193.694C43.9176 196.953 37.6207 199.617 30.787 201.32C27.0182 194.792 23.2494 188.265 19.4806 181.737C26.3143 180.034 32.6112 177.37 38.5462 174.11C30.089 173.001 21.2699 171.297 11.9068 168.619C10.9863 167.024 10.0659 165.43 9.13815 163.823Z" fill="white"/>
<path d="M21.5607 185.34C23.9452 189.47 26.3297 193.6 28.707 197.717C44.0061 193.922 56.5288 185.286 68.6317 175.955C72.7702 183.123 76.9158 190.304 81.0543 197.472C85.2806 194.212 89.4561 190.864 93.6684 187.612C89.53 180.444 85.3843 173.263 81.2459 166.095C93.3488 156.764 105.879 148.141 121.178 144.346C118.793 140.216 116.409 136.086 114.032 131.968C98.7325 135.763 86.2098 144.399 74.1069 153.73C69.9685 146.562 65.8228 139.381 61.6843 132.213C57.4581 135.474 53.2825 138.822 49.0702 142.074C53.2086 149.242 57.3543 156.422 61.4927 163.59C49.3759 172.929 36.8599 181.545 21.5607 185.34Z" fill="#E6332A"/>
<path d="M88.6568 165.683C99.6058 166.123 110.845 167.066 122.903 169.428C125.702 168.263 128.596 167.229 131.584 166.391C118.946 162.992 107.293 161.333 96.112 160.458C93.581 162.12 91.108 163.883 88.6568 165.683Z" fill="#E6332A"/>
<path d="M11.4405 163.214C24.071 166.567 35.7158 168.212 46.8967 169.055C49.4065 167.388 51.8868 165.638 54.3169 163.833C43.3678 163.393 32.1434 162.475 20.1212 160.143C17.3148 161.328 14.4214 162.363 11.4405 163.214Z" fill="#E6332A"/>
<path d="M39.1725 215.844C39.8248 216.974 40.4844 218.116 41.1367 219.246C42.404 218.933 43.6496 218.582 44.8947 218.198C50.5239 209.424 55.1892 198.981 59.4341 187.81C56.9248 189.51 54.3861 191.126 51.7681 192.638C48.0554 201.225 43.944 209.123 39.1725 215.844Z" fill="#E6332A"/>
<path d="M83.5616 141.71C86.0641 140.031 88.6168 138.406 91.2281 136.916C94.9008 128.452 98.9509 120.673 103.674 114.03C102.986 112.837 102.29 111.632 101.602 110.439C100.432 110.729 99.2775 111.045 98.1232 111.393C92.4862 120.121 87.8065 130.539 83.5616 141.71Z" fill="#E6332A"/>
</g>
<path d="M125.975 91.6094L161.471 216.831" stroke="#001FC9" stroke-opacity="0.5" stroke-width="3"/>
<path d="M95.7858 98.357C102.898 91.1377 113.642 94.2134 122.217 99.1076C126.083 101.314 131.539 98.5173 131.229 94.0774C129.855 74.3878 127.417 47.1032 124.248 38.8126C119.378 26.075 96.6686 28.7746 79.3912 38.9341C68.2079 45.5102 45.8428 37.2146 30.4226 29.4608C26.6097 27.5436 22.014 30.751 22.7326 34.9578L31.885 88.5355C32.0784 89.6673 32.6462 90.7082 33.5529 91.4126C47.9514 102.598 83.2814 111.049 95.7858 98.357Z" fill="#F6F6F6"/>
<path d="M88 71.5C88 78.9558 80.2832 85 73.0667 85C65.8501 85 60 78.9558 60 71.5C60 64.0442 65.8501 58 73.0667 58C80.2832 58 88 64.0442 88 71.5Z" fill="#FF1F38"/>
<defs>
<clipPath id="clip0">
<rect width="106.768" height="69.9113" fill="white" transform="matrix(-0.866025 0.5 0.5 0.866025 100.123 107.878)"/>
</clipPath>
</defs>
</svg>
