<svg width="408" height="316" viewBox="0 0 408 316" fill="none" xmlns="http://www.w3.org/2000/svg">
<path d="M131.5 167L85 139.5L12 181.5L59.5 210L131.5 167Z" fill="#FF1F38" fill-opacity="0.4"/>
<path d="M118.5 164L77 139L0 184L42.5 210L118.5 164Z" fill="#FF1F38"/>
<path d="M407.5 258L361 230.5L288 272.5L335.5 301L407.5 258Z" fill="#FF1F38" fill-opacity="0.4"/>
<path d="M394.5 255L353 230L276 275L318.5 301L394.5 255Z" fill="#FF1F38"/>
<path d="M317 157.323L250.112 114.849L192.894 148.828L261.394 193L317 157.323Z" fill="#FF1F38" fill-opacity="0.4"/>
<path d="M304.106 156.473L237.218 114L180 147.978L248.5 192.151L304.106 156.473Z" fill="#FF1F38"/>
<path d="M232 280.323L165.112 237.849L107.894 271.828L176.394 316L232 280.323Z" fill="#FF1F38" fill-opacity="0.4"/>
<path d="M219.106 279.473L152.218 237L95 270.978L163.5 315.151L219.106 279.473Z" fill="#FF1F38"/>
<path d="M283.774 31L233.506 1.82796L180.047 34.9462L231.822 65.7742L257.798 48.3871L283.774 31Z" fill="#FF1F38" fill-opacity="0.4"/>
<path d="M276 31.5L221 0L167 31.5L223.5 64.5L248.5 50L276 31.5Z" fill="#FF1F38"/>
<path d="M276 31.5L221 0L167 31.5L223.5 64.5L248.5 50L276 31.5Z" fill="url(#paint0_linear)" fill-opacity="0.1"/>
<path d="M36.3774 189.659L38.4258 188.476L40.557 189.707L38.5086 190.889L36.3774 189.659ZM40.8377 185.689C40.5574 185.765 40.2752 185.825 39.9911 185.87C39.7069 185.916 39.4227 185.937 39.1386 185.932C38.8544 185.923 38.5702 185.882 38.286 185.809C38.0019 185.736 37.7197 185.619 37.4394 185.457C37.1316 185.279 36.9224 185.083 36.8119 184.869C36.7014 184.655 36.6797 184.435 36.7468 184.209C36.8099 183.982 36.956 183.754 37.1849 183.526C37.4138 183.293 37.7118 183.071 38.0788 182.859C38.3709 182.691 38.6847 182.542 39.0201 182.412C39.3556 182.282 39.6733 182.174 39.9733 182.087C40.2733 181.996 40.5338 181.928 40.7548 181.882C40.9797 181.834 41.1277 181.808 41.1988 181.803L41.8678 182.634C41.7612 182.641 41.6033 182.668 41.3942 182.716C41.181 182.761 40.9501 182.822 40.7015 182.897C40.4528 182.968 40.2002 183.052 39.9437 183.15C39.6872 183.248 39.4602 183.354 39.2629 183.468C39.0537 183.589 38.8939 183.706 38.7833 183.82C38.6728 183.929 38.6038 184.033 38.5761 184.131C38.5525 184.227 38.5663 184.317 38.6176 184.401C38.6689 184.481 38.7518 184.553 38.8662 184.62C38.957 184.672 39.0537 184.71 39.1563 184.732C39.2589 184.755 39.3694 184.764 39.4878 184.76C39.6063 184.755 39.7365 184.739 39.8786 184.712C40.0207 184.684 40.1785 184.648 40.3522 184.602L41.8737 184.196C42.296 184.084 42.6946 183.998 43.0696 183.936C43.4406 183.872 43.7958 183.84 44.1352 183.84C44.4707 183.838 44.7864 183.872 45.0825 183.943C45.3824 184.011 45.6646 184.122 45.9291 184.274C46.2685 184.47 46.5092 184.682 46.6513 184.91C46.7934 185.133 46.8408 185.366 46.7934 185.607C46.75 185.847 46.6138 186.089 46.3849 186.335C46.1599 186.579 45.8442 186.818 45.4377 187.053C45.0982 187.249 44.749 187.414 44.3898 187.549C44.0385 187.683 43.7109 187.795 43.407 187.884C43.1031 187.968 42.8387 188.032 42.6137 188.075C42.3927 188.116 42.2467 188.139 42.1756 188.143L41.4889 187.302C41.5678 187.298 41.7178 187.273 41.9388 187.227C42.1559 187.179 42.4006 187.118 42.6729 187.043C42.9453 186.968 43.2196 186.88 43.4958 186.78C43.7761 186.677 44.0168 186.568 44.2181 186.451C44.376 186.36 44.5161 186.263 44.6384 186.161C44.7568 186.056 44.8378 185.95 44.8812 185.843C44.9206 185.734 44.9147 185.626 44.8634 185.518C44.8121 185.407 44.6937 185.297 44.5082 185.19C44.299 185.07 44.0444 185.016 43.7445 185.03C43.4445 185.043 43.1071 185.099 42.7321 185.197L40.8377 185.689ZM52.2779 183.097C51.9266 183.3 51.5734 183.44 51.2182 183.518C50.859 183.593 50.49 183.608 50.1111 183.562C49.7283 183.514 49.3277 183.408 48.9093 183.244C48.487 183.078 48.0351 182.856 47.5536 182.578L43.9837 180.517L42.7996 181.2L42.0478 180.766L43.3384 180.021L40.9525 178.644L42.0774 177.543L44.8539 179.146L46.8372 178.001L47.5891 178.435L45.6058 179.58L49.7026 181.946C50.1012 182.176 50.4446 182.317 50.7327 182.369C51.0208 182.417 51.2951 182.366 51.5556 182.216C51.7056 182.129 51.8299 182.009 51.9286 181.857C52.0312 181.702 52.1279 181.521 52.2187 181.313L53.6751 181.634C53.6356 181.73 53.5823 181.836 53.5152 181.952C53.4481 182.069 53.3593 182.19 53.2488 182.318C53.1383 182.446 53.0041 182.576 52.8462 182.708C52.6884 182.84 52.4989 182.97 52.2779 183.097ZM51.487 176.623C51.4159 176.445 51.3725 176.276 51.3567 176.117C51.3449 175.955 51.3666 175.801 51.4218 175.655C51.481 175.507 51.5777 175.365 51.7119 175.228C51.8461 175.092 52.0257 174.958 52.2507 174.828C52.377 174.755 52.5092 174.686 52.6473 174.62L54.0031 175.403C53.9241 175.421 53.8215 175.462 53.6952 175.526C53.565 175.587 53.4308 175.658 53.2926 175.738C53.0085 175.902 52.8012 176.103 52.671 176.342C52.5408 176.577 52.4598 176.822 52.4283 177.077L57.4309 179.965L55.8028 180.905L48.8051 176.865L50.1431 176.093L51.487 176.623ZM61.4945 177.619L54.4968 173.58L56.1012 172.653L63.0989 176.693L61.4945 177.619ZM52.1642 172.356C52.034 172.281 51.9353 172.197 51.8682 172.103C51.8011 172.01 51.7676 171.915 51.7676 171.819C51.7676 171.724 51.7992 171.63 51.8623 171.539C51.9215 171.446 52.0143 171.363 52.1405 171.29C52.2708 171.214 52.4168 171.16 52.5786 171.126C52.7405 171.087 52.9062 171.069 53.0759 171.071C53.2417 171.071 53.4055 171.09 53.5673 171.129C53.7291 171.168 53.8732 171.224 53.9995 171.296C54.1297 171.372 54.2264 171.457 54.2896 171.553C54.3567 171.646 54.3883 171.742 54.3843 171.84C54.3843 171.936 54.3508 172.03 54.2837 172.124C54.2205 172.215 54.1278 172.296 54.0054 172.366C53.8712 172.444 53.7252 172.501 53.5673 172.537C53.4055 172.571 53.2417 172.588 53.0759 172.588C52.9102 172.584 52.7484 172.563 52.5905 172.527C52.4326 172.486 52.2905 172.429 52.1642 172.356ZM61.1002 170.936C61.041 170.779 61.0193 170.614 61.0351 170.441C61.0509 170.263 61.1022 170.088 61.189 169.914C61.2798 169.739 61.4061 169.57 61.5679 169.409C61.7258 169.244 61.9172 169.098 62.1422 168.968C62.5684 168.722 62.9927 168.547 63.415 168.445C63.8373 168.342 64.2636 168.303 64.6938 168.329C65.124 168.354 65.5581 168.442 65.9962 168.595C66.4383 168.745 66.8882 168.953 67.3461 169.217L71.6974 171.729L70.0694 172.669L65.641 170.113C65.0924 169.796 64.5951 169.614 64.1491 169.566C63.7031 169.513 63.2749 169.606 62.8644 169.843C62.6987 169.938 62.5566 170.052 62.4382 170.184C62.3198 170.317 62.2251 170.451 62.154 170.588C62.083 170.724 62.0356 170.857 62.0119 170.984C61.9883 171.112 61.9843 171.219 62.0001 171.305L67.2158 174.316L65.5877 175.256L58.59 171.217L59.8155 170.509L61.1002 170.936ZM78.3008 169.934C78.735 169.683 79.0823 169.462 79.3428 169.27C79.6072 169.081 79.7868 168.909 79.8815 168.754C79.9842 168.599 80.0019 168.457 79.9348 168.327C79.8717 168.195 79.7256 168.063 79.4967 167.931C79.2402 167.783 78.9836 167.705 78.7271 167.698C78.4745 167.689 78.1943 167.737 77.8864 167.842C77.5786 167.947 77.2253 168.103 76.8267 168.31C76.4281 168.517 75.9604 168.762 75.4236 169.045C75.3762 169.136 75.3486 169.236 75.3407 169.346C75.3328 169.455 75.3447 169.564 75.3762 169.674C75.4157 169.783 75.4749 169.89 75.5539 169.995C75.6407 170.1 75.7551 170.193 75.8972 170.275C76.0867 170.385 76.2781 170.452 76.4715 170.477C76.6688 170.5 76.8662 170.491 77.0635 170.45C77.2648 170.411 77.4681 170.346 77.6733 170.255C77.8825 170.161 78.0917 170.054 78.3008 169.934ZM73.393 166.574C73.5232 166.467 73.6239 166.356 73.6949 166.242C73.7699 166.126 73.8054 166.008 73.8015 165.887C73.7936 165.764 73.7383 165.639 73.6357 165.511C73.5331 165.383 73.3693 165.255 73.1443 165.125C72.7575 164.901 72.3747 164.806 71.9958 164.838C71.6209 164.867 71.2124 165.01 70.7703 165.265C70.569 165.381 70.4013 165.498 70.2671 165.617C70.1368 165.733 70.0559 165.85 70.0244 165.969C69.9888 166.085 70.0125 166.206 70.0954 166.331C70.1783 166.452 70.3322 166.577 70.5572 166.707C70.7111 166.796 70.8789 166.87 71.0604 166.929C71.2459 166.986 71.4373 167.028 71.6347 167.056C71.8281 167.081 72.0215 167.092 72.2148 167.09C72.4082 167.083 72.5918 167.064 72.7654 167.032L73.393 166.574ZM73.091 164.014C73.4107 164.034 73.6831 164.066 73.908 164.11C74.1291 164.151 74.3185 164.217 74.4764 164.308C74.7605 164.472 74.9934 164.652 75.175 164.848C75.3565 165.039 75.4631 165.247 75.4947 165.47C75.5262 165.693 75.467 165.932 75.317 166.188C75.171 166.441 74.9086 166.711 74.5297 166.998L72.8483 168.29L73.76 168.693L75.4947 167.76C76.0788 167.45 76.6195 167.204 77.1168 167.022C77.6141 166.835 78.0838 166.714 78.5258 166.659C78.9679 166.605 79.3882 166.617 79.7868 166.697C80.1815 166.774 80.5683 166.922 80.9472 167.141C81.3734 167.387 81.6477 167.644 81.7701 167.91C81.8964 168.179 81.8905 168.458 81.7523 168.748C81.6181 169.039 81.3596 169.343 80.9768 169.66C80.5979 169.975 80.1124 170.303 79.5204 170.644C78.589 171.182 77.7246 171.494 76.9273 171.581C76.134 171.665 75.3723 171.497 74.6421 171.075C74.4566 170.968 74.3146 170.849 74.2159 170.72C74.1212 170.592 74.0639 170.459 74.0442 170.32C74.0205 170.178 74.0304 170.036 74.0738 169.892C74.1172 169.749 74.1843 169.61 74.2751 169.476C74.0896 169.555 73.9021 169.611 73.7127 169.643C73.5232 169.675 73.3259 169.679 73.1206 169.657C72.9154 169.634 72.7003 169.583 72.4753 169.503C72.2543 169.421 72.0155 169.306 71.759 169.158C71.5735 169.051 71.459 168.941 71.4156 168.83C71.3722 168.713 71.3742 168.596 71.4215 168.478C71.4689 168.359 71.5518 168.238 71.6702 168.115C71.7925 167.99 71.9208 167.863 72.055 167.736C71.8577 167.822 71.6366 167.886 71.3919 167.927C71.1472 167.964 70.8946 167.975 70.6341 167.961C70.3776 167.946 70.1171 167.902 69.8527 167.832C69.5922 167.759 69.3455 167.655 69.1127 167.521C68.7653 167.32 68.5167 167.106 68.3667 166.878C68.2167 166.646 68.1615 166.406 68.2009 166.16C68.2404 165.914 68.3746 165.666 68.6035 165.415C68.8324 165.165 69.1561 164.919 69.5744 164.677C69.9533 164.458 70.3204 164.285 70.6756 164.158C71.0269 164.028 71.3742 163.946 71.7175 163.911C71.7965 163.784 71.8774 163.671 71.9603 163.573C72.0432 163.471 72.1399 163.374 72.2504 163.283C72.3609 163.187 72.4911 163.091 72.6411 162.995C72.7871 162.898 72.9667 162.787 73.1798 162.664L73.4226 162.524L74.5474 163.173L73.091 164.014ZM79.949 163.11C79.6688 163.186 79.3866 163.246 79.1024 163.291C78.8183 163.337 78.5341 163.358 78.2499 163.353C77.9658 163.344 77.6816 163.303 77.3974 163.23C77.1132 163.157 76.831 163.04 76.5508 162.878C76.243 162.7 76.0338 162.504 75.9233 162.29C75.8128 162.076 75.7911 161.856 75.8582 161.63C75.9213 161.403 76.0673 161.175 76.2963 160.947C76.5252 160.714 76.8232 160.492 77.1902 160.28C77.4823 160.112 77.796 159.963 78.1315 159.833C78.467 159.703 78.7847 159.595 79.0847 159.508C79.3846 159.417 79.6451 159.349 79.8661 159.303C80.0911 159.255 80.2391 159.229 80.3102 159.224L80.9791 160.055C80.8726 160.062 80.7147 160.089 80.5055 160.137C80.2924 160.182 80.0615 160.243 79.8129 160.318C79.5642 160.389 79.3116 160.473 79.0551 160.571C78.7985 160.669 78.5716 160.775 78.3743 160.889C78.1651 161.01 78.0052 161.127 77.8947 161.241C77.7842 161.35 77.7151 161.454 77.6875 161.552C77.6638 161.648 77.6776 161.738 77.7289 161.822C77.7803 161.902 77.8631 161.974 77.9776 162.041C78.0684 162.093 78.1651 162.131 78.2677 162.153C78.3703 162.176 78.4808 162.185 78.5992 162.181C78.7176 162.176 78.8479 162.16 78.99 162.133C79.132 162.105 79.2899 162.069 79.4636 162.023L80.9851 161.617C81.4074 161.505 81.806 161.419 82.181 161.357C82.552 161.293 82.9072 161.261 83.2466 161.261C83.5821 161.259 83.8978 161.293 84.1938 161.364C84.4938 161.432 84.776 161.543 85.0404 161.695C85.3799 161.891 85.6206 162.103 85.7627 162.331C85.9048 162.554 85.9521 162.787 85.9048 163.028C85.8614 163.268 85.7252 163.51 85.4963 163.756C85.2713 164 84.9556 164.239 84.549 164.474C84.2096 164.67 83.8603 164.835 83.5012 164.97C83.1499 165.104 82.8223 165.216 82.5184 165.305C82.2145 165.389 81.9501 165.453 81.7251 165.496C81.5041 165.537 81.358 165.56 81.287 165.564L80.6003 164.723C80.6792 164.719 80.8292 164.694 81.0502 164.648C81.2673 164.6 81.512 164.539 81.7843 164.464C82.0566 164.389 82.3309 164.301 82.6072 164.201C82.8874 164.098 83.1282 163.989 83.3295 163.872C83.4874 163.781 83.6275 163.684 83.7498 163.582C83.8682 163.477 83.9491 163.371 83.9925 163.264C84.032 163.155 84.0261 163.047 83.9748 162.939C83.9235 162.828 83.8051 162.718 83.6196 162.611C83.4104 162.491 83.1558 162.437 82.8559 162.451C82.5559 162.464 82.2185 162.52 81.8435 162.618L79.949 163.11Z" fill="white"/>
<path d="M308.459 274.854L321.081 278.518L319.364 279.509L316.469 278.644L312.946 280.678L314.444 282.349L312.727 283.34L306.357 276.067L308.459 274.854ZM312.348 280.073L315.421 278.299L309.151 276.43L312.348 280.073ZM318.377 273.168C318.318 273.01 318.297 272.845 318.312 272.672C318.328 272.494 318.379 272.319 318.466 272.146C318.557 271.97 318.683 271.802 318.845 271.64C319.003 271.476 319.194 271.329 319.419 271.199C319.846 270.953 320.27 270.779 320.692 270.676C321.115 270.574 321.541 270.535 321.971 270.56C322.401 270.585 322.835 270.674 323.273 270.826C323.716 270.977 324.165 271.184 324.623 271.449L328.975 273.961L327.347 274.9L322.918 272.344C322.37 272.027 321.872 271.845 321.426 271.797C320.98 271.745 320.552 271.837 320.142 272.074C319.976 272.17 319.834 272.284 319.715 272.416C319.597 272.548 319.502 272.682 319.431 272.819C319.36 272.956 319.313 273.088 319.289 273.215C319.265 273.343 319.262 273.45 319.277 273.537L324.493 276.548L322.865 277.488L315.867 273.448L317.093 272.74L318.377 273.168ZM329.007 269.882C329.46 270.144 329.881 270.348 330.268 270.494C330.658 270.637 331.021 270.731 331.357 270.774C331.688 270.815 331.994 270.809 332.275 270.757C332.551 270.702 332.803 270.609 333.032 270.476C333.348 270.294 333.591 270.086 333.761 269.851C333.93 269.616 333.995 269.367 333.956 269.103L330.392 267.045C329.867 267.079 329.393 267.139 328.971 267.223C328.545 267.305 328.174 267.437 327.858 267.619C327.59 267.774 327.428 267.938 327.373 268.111C327.313 268.282 327.341 268.462 327.456 268.651C327.57 268.841 327.761 269.038 328.03 269.243C328.298 269.448 328.624 269.661 329.007 269.882ZM326.437 267.148C326.867 266.899 327.331 266.72 327.828 266.611C328.326 266.502 328.865 266.464 329.445 266.498L325.887 264.444L327.26 263.357L337.301 269.154L336.135 269.827L334.785 269.41C334.86 269.563 334.895 269.725 334.891 269.895C334.887 270.062 334.846 270.227 334.767 270.391C334.688 270.555 334.576 270.713 334.43 270.866C334.283 271.019 334.104 271.157 333.891 271.28C333.374 271.578 332.835 271.773 332.275 271.864C331.71 271.953 331.142 271.962 330.57 271.891C329.993 271.819 329.423 271.678 328.859 271.471C328.29 271.261 327.744 271.005 327.219 270.702C326.749 270.431 326.366 270.139 326.07 269.827C325.774 269.51 325.583 269.195 325.496 268.88C325.413 268.564 325.445 268.256 325.591 267.958C325.741 267.657 326.023 267.387 326.437 267.148ZM335.355 263.503C335.284 263.325 335.241 263.157 335.225 262.997C335.213 262.835 335.235 262.682 335.29 262.536C335.35 262.388 335.446 262.245 335.58 262.108C335.715 261.972 335.894 261.838 336.119 261.709C336.245 261.636 336.378 261.566 336.516 261.5L337.872 262.283C337.793 262.301 337.69 262.342 337.564 262.406C337.433 262.467 337.299 262.538 337.161 262.618C336.877 262.782 336.67 262.983 336.539 263.223C336.409 263.457 336.328 263.702 336.297 263.957L341.299 266.845L339.671 267.785L332.674 263.746L334.012 262.973L335.355 263.503ZM346.884 262.555C347.208 262.368 347.413 262.174 347.5 261.974C347.587 261.769 347.581 261.563 347.482 261.355C347.384 261.143 347.21 260.934 346.961 260.726C346.709 260.517 346.407 260.311 346.056 260.108C345.708 259.907 345.353 259.734 344.99 259.588C344.627 259.442 344.264 259.342 343.901 259.287C343.538 259.228 343.178 259.224 342.823 259.274C342.468 259.319 342.129 259.436 341.805 259.622C341.481 259.809 341.28 260.005 341.201 260.21C341.118 260.413 341.126 260.62 341.225 260.832C341.323 261.04 341.501 261.249 341.758 261.461C342.01 261.671 342.308 261.875 342.652 262.073C342.837 262.18 343.036 262.286 343.249 262.391C343.463 262.491 343.686 262.583 343.918 262.668C344.151 262.747 344.392 262.813 344.641 262.866C344.885 262.916 345.134 262.941 345.387 262.941C345.639 262.941 345.892 262.911 346.144 262.852C346.397 262.793 346.644 262.694 346.884 262.555ZM347.648 259.188C348.149 259.478 348.56 259.785 348.88 260.111C349.199 260.437 349.393 260.772 349.46 261.116C349.531 261.458 349.454 261.805 349.229 262.158C349 262.509 348.59 262.856 347.998 263.197C347.405 263.539 346.806 263.776 346.198 263.908C345.586 264.038 344.98 264.085 344.38 264.048C343.784 264.01 343.204 263.898 342.64 263.713C342.075 263.529 341.542 263.292 341.041 263.003C340.536 262.711 340.122 262.401 339.798 262.073C339.478 261.743 339.285 261.405 339.218 261.061C339.155 260.715 339.234 260.366 339.455 260.015C339.68 259.662 340.086 259.316 340.674 258.976C341.262 258.637 341.86 258.403 342.468 258.276C343.08 258.146 343.684 258.1 344.28 258.139C344.88 258.176 345.464 258.287 346.032 258.474C346.604 258.659 347.143 258.897 347.648 259.188ZM353.251 259.946L346.253 255.906L347.858 254.98L354.855 259.02L353.251 259.946ZM343.921 254.682C343.791 254.607 343.692 254.523 343.625 254.429C343.558 254.336 343.524 254.242 343.524 254.146C343.524 254.05 343.556 253.957 343.619 253.866C343.678 253.772 343.771 253.689 343.897 253.616C344.027 253.541 344.173 253.486 344.335 253.452C344.497 253.413 344.663 253.395 344.833 253.397C344.998 253.397 345.162 253.417 345.324 253.455C345.486 253.494 345.63 253.55 345.756 253.623C345.886 253.698 345.983 253.784 346.046 253.879C346.113 253.973 346.145 254.068 346.141 254.166C346.141 254.262 346.107 254.357 346.04 254.45C345.977 254.541 345.884 254.622 345.762 254.693C345.628 254.77 345.482 254.827 345.324 254.864C345.162 254.898 344.998 254.915 344.833 254.915C344.667 254.91 344.505 254.89 344.347 254.853C344.189 254.812 344.047 254.755 343.921 254.682ZM355.053 254.845C355.507 255.107 355.927 255.311 356.314 255.457C356.705 255.6 357.068 255.694 357.404 255.737C357.735 255.778 358.041 255.772 358.321 255.72C358.597 255.665 358.85 255.572 359.079 255.44C359.395 255.258 359.637 255.049 359.807 254.814C359.977 254.58 360.042 254.33 360.003 254.066L356.439 252.008C355.914 252.043 355.44 252.102 355.018 252.186C354.591 252.268 354.22 252.4 353.905 252.583C353.636 252.737 353.474 252.902 353.419 253.075C353.36 253.246 353.388 253.426 353.502 253.615C353.617 253.804 353.808 254.001 354.076 254.206C354.345 254.411 354.67 254.624 355.053 254.845ZM352.484 252.111C352.914 251.863 353.378 251.684 353.875 251.574C354.372 251.465 354.911 251.427 355.491 251.462L351.933 249.407L353.307 248.321L363.347 254.117L362.181 254.79L360.831 254.373C360.906 254.526 360.942 254.688 360.938 254.859C360.934 255.025 360.893 255.19 360.814 255.354C360.735 255.518 360.622 255.677 360.476 255.829C360.33 255.982 360.151 256.12 359.937 256.243C359.42 256.541 358.882 256.736 358.321 256.827C357.757 256.916 357.188 256.925 356.616 256.855C356.04 256.782 355.47 256.642 354.905 256.434C354.337 256.225 353.79 255.968 353.265 255.665C352.796 255.394 352.413 255.103 352.117 254.79C351.821 254.474 351.629 254.158 351.543 253.844C351.46 253.527 351.491 253.219 351.637 252.921C351.787 252.62 352.069 252.35 352.484 252.111Z" fill="white"/>
<path d="M208.377 40.1597L210.426 38.9771L212.557 40.2075L210.509 41.39L208.377 40.1597ZM216.23 38.0871L214.424 39.1295L213.329 35.7084L207.391 35.1103L209.232 34.0474L213.033 34.601L212.074 32.4068L213.88 31.3644L214.963 34.7651L220.836 35.4281L219.066 36.45L215.194 35.8417L216.23 38.0871ZM224.231 33.4684L222.602 34.4083L215.605 30.3685L216.777 29.6918L218.245 30.1771C218.02 29.7966 217.977 29.4389 218.115 29.1039C218.253 28.769 218.565 28.4614 219.05 28.1811C219.536 27.9009 220.039 27.7311 220.56 27.6719C221.081 27.6081 221.608 27.6411 222.141 27.771C222.022 27.4019 222.054 27.0464 222.235 26.7047C222.417 26.3583 222.764 26.0371 223.277 25.7409C223.633 25.5358 224.008 25.3923 224.402 25.3102C224.797 25.2237 225.198 25.1952 225.604 25.2248C226.011 25.2499 226.419 25.3285 226.83 25.4606C227.24 25.5928 227.641 25.7716 228.031 25.9972L232.602 28.6357L230.968 29.579L226.314 26.8927C226.05 26.74 225.805 26.6261 225.58 26.5509C225.359 26.4734 225.154 26.4278 224.965 26.4142C224.775 26.4005 224.6 26.4153 224.438 26.4586C224.272 26.4996 224.114 26.5634 223.964 26.65C223.688 26.8095 223.496 27.0066 223.39 27.2413C223.279 27.4737 223.224 27.7539 223.224 28.082L228.392 31.0657L226.764 32.0056L222.076 29.2987C221.614 29.0322 221.203 28.8795 220.844 28.8408C220.485 28.802 220.132 28.8829 219.784 29.0834C219.512 29.2406 219.331 29.4457 219.24 29.6986C219.145 29.9493 219.115 30.2284 219.151 30.536L224.231 33.4684ZM236.612 26.3205L234.978 27.2638L225.192 21.6143L226.571 20.524L236.612 26.3205Z" fill="white"/>
<path d="M228.117 164.53C228.457 164.261 228.7 164.023 228.846 163.816C228.988 163.606 229.037 163.409 228.994 163.224C228.95 163.035 228.816 162.848 228.591 162.664C228.37 162.477 228.06 162.269 227.662 162.038L221.137 158.272L222.837 157.291L229.254 160.996C229.811 161.317 230.253 161.632 230.58 161.939C230.912 162.245 231.107 162.556 231.166 162.872C231.222 163.187 231.129 163.511 230.888 163.846C230.651 164.184 230.243 164.54 229.663 164.916L228.117 164.53ZM238.551 156.169C238.95 156.399 239.256 156.651 239.469 156.924C239.678 157.195 239.769 157.485 239.741 157.792C239.714 158.1 239.552 158.421 239.256 158.756C238.96 159.091 238.506 159.435 237.894 159.788C237.476 160.03 237.04 160.234 236.586 160.4C236.14 160.566 235.725 160.703 235.342 160.81C234.896 160.935 234.46 161.034 234.034 161.107L233.093 160.229C233.101 160.234 233.166 160.223 233.288 160.198C233.41 160.173 233.57 160.136 233.768 160.085C233.965 160.031 234.19 159.967 234.443 159.894C234.695 159.821 234.954 159.738 235.218 159.645C235.486 159.549 235.751 159.446 236.011 159.337C236.276 159.225 236.515 159.108 236.728 158.985C236.988 158.835 237.199 158.685 237.361 158.537C237.527 158.387 237.632 158.24 237.675 158.096C237.718 157.948 237.697 157.804 237.61 157.662C237.527 157.519 237.365 157.377 237.124 157.239C236.769 157.033 236.378 156.92 235.952 156.897C235.526 156.874 235.04 156.933 234.496 157.074L231.672 157.789C231.281 157.887 230.89 157.962 230.5 158.014C230.109 158.067 229.726 158.087 229.351 158.076C228.976 158.06 228.611 158.009 228.256 157.922C227.905 157.833 227.571 157.698 227.255 157.515C226.802 157.253 226.502 156.978 226.356 156.688C226.213 156.397 226.188 156.104 226.279 155.81C226.373 155.514 226.571 155.222 226.871 154.935C227.174 154.646 227.545 154.374 227.984 154.122C228.366 153.901 228.755 153.713 229.15 153.558C229.549 153.4 229.923 153.271 230.275 153.168C230.626 153.061 230.938 152.979 231.21 152.922C231.482 152.865 231.684 152.826 231.814 152.806L232.643 153.681C232.528 153.697 232.349 153.732 232.104 153.787C231.859 153.837 231.585 153.906 231.281 153.995C230.981 154.082 230.669 154.186 230.346 154.31C230.022 154.433 229.722 154.574 229.446 154.733C229.166 154.895 228.929 155.055 228.735 155.212C228.542 155.364 228.408 155.515 228.333 155.663C228.258 155.811 228.25 155.957 228.309 156.1C228.372 156.242 228.518 156.378 228.747 156.511C228.854 156.572 228.97 156.623 229.097 156.664C229.227 156.703 229.373 156.728 229.535 156.74C229.693 156.749 229.872 156.743 230.073 156.722C230.275 156.697 230.504 156.652 230.76 156.586L233.525 155.858C233.971 155.742 234.417 155.653 234.863 155.591C235.309 155.53 235.745 155.508 236.171 155.526C236.594 155.542 237.006 155.603 237.409 155.707C237.811 155.808 238.192 155.961 238.551 156.169ZM246.274 149.182C246.98 149.589 247.568 150.011 248.038 150.446C248.503 150.879 248.799 151.319 248.926 151.765C249.052 152.207 248.981 152.654 248.713 153.105C248.444 153.556 247.927 154.003 247.162 154.445C246.652 154.739 246.137 154.968 245.616 155.132C245.095 155.296 244.574 155.403 244.053 155.453C243.532 155.503 243.011 155.501 242.491 155.446C241.97 155.392 241.454 155.295 240.945 155.156C240.44 155.014 239.939 154.837 239.442 154.623C238.944 154.404 238.459 154.158 237.985 153.884C237.239 153.454 236.657 153.017 236.239 152.575C235.816 152.131 235.572 151.691 235.505 151.256C235.438 150.821 235.55 150.394 235.842 149.974C236.134 149.551 236.62 149.143 237.298 148.751C237.981 148.357 238.69 148.075 239.424 147.907C240.158 147.734 240.906 147.669 241.668 147.712C242.429 147.755 243.197 147.902 243.971 148.153C244.744 148.399 245.512 148.742 246.274 149.182ZM239.862 152.985C240.426 153.311 240.977 153.579 241.514 153.789C242.054 153.996 242.577 154.136 243.083 154.209C243.592 154.28 244.081 154.277 244.551 154.202C245.02 154.122 245.468 153.96 245.895 153.713C246.309 153.474 246.587 153.222 246.729 152.958C246.871 152.689 246.885 152.41 246.771 152.121C246.656 151.827 246.42 151.524 246.06 151.212C245.701 150.895 245.228 150.567 244.64 150.227C244.048 149.886 243.477 149.609 242.929 149.397C242.38 149.185 241.851 149.044 241.342 148.973C240.833 148.902 240.347 148.907 239.886 148.987C239.424 149.062 238.986 149.219 238.571 149.458C238.145 149.704 237.861 149.962 237.719 150.231C237.577 150.5 237.565 150.782 237.683 151.078C237.802 151.37 238.046 151.675 238.417 151.994C238.784 152.311 239.266 152.641 239.862 152.985ZM259.182 147.259L247.347 145.513L254.777 149.802L253.203 150.711L243.718 145.236L245.696 144.095L257.382 145.838L250.029 141.593L251.598 140.687L261.082 146.162L259.182 147.259Z" fill="white"/>
<path d="M150.161 283.78C150.56 284.01 150.866 284.262 151.079 284.536C151.288 284.807 151.379 285.096 151.351 285.404C151.324 285.711 151.162 286.033 150.866 286.368C150.57 286.702 150.116 287.046 149.504 287.4C149.086 287.641 148.65 287.845 148.196 288.011C147.75 288.178 147.335 288.314 146.953 288.422C146.507 288.547 146.071 288.646 145.644 288.719L144.703 287.841C144.711 287.845 144.776 287.835 144.898 287.81C145.021 287.785 145.181 287.747 145.378 287.697C145.575 287.642 145.8 287.579 146.053 287.506C146.305 287.433 146.564 287.35 146.828 287.256C147.097 287.16 147.361 287.058 147.622 286.949C147.886 286.837 148.125 286.72 148.338 286.596C148.598 286.446 148.81 286.297 148.971 286.149C149.137 285.998 149.242 285.851 149.285 285.708C149.329 285.56 149.307 285.415 149.22 285.274C149.137 285.13 148.975 284.989 148.735 284.85C148.379 284.645 147.989 284.531 147.562 284.508C147.136 284.485 146.651 284.545 146.106 284.686L143.282 285.4C142.891 285.498 142.501 285.573 142.11 285.626C141.719 285.678 141.336 285.699 140.961 285.687C140.586 285.671 140.221 285.62 139.866 285.534C139.515 285.445 139.181 285.309 138.866 285.127C138.412 284.865 138.112 284.589 137.966 284.3C137.824 284.008 137.798 283.715 137.889 283.421C137.984 283.125 138.181 282.834 138.481 282.546C138.785 282.257 139.156 281.986 139.594 281.733C139.977 281.512 140.365 281.324 140.76 281.169C141.159 281.012 141.534 280.882 141.885 280.779C142.236 280.672 142.548 280.59 142.82 280.533C143.093 280.476 143.294 280.438 143.424 280.417L144.253 281.292C144.139 281.308 143.959 281.343 143.714 281.398C143.47 281.448 143.195 281.518 142.891 281.607C142.591 281.693 142.28 281.798 141.956 281.921C141.632 282.044 141.332 282.185 141.056 282.345C140.776 282.507 140.539 282.666 140.346 282.823C140.152 282.976 140.018 283.126 139.943 283.274C139.868 283.423 139.86 283.568 139.919 283.712C139.983 283.853 140.129 283.99 140.358 284.122C140.464 284.184 140.581 284.235 140.707 284.276C140.837 284.315 140.983 284.34 141.145 284.351C141.303 284.36 141.482 284.354 141.684 284.334C141.885 284.309 142.114 284.263 142.37 284.197L145.135 283.469C145.581 283.353 146.027 283.264 146.473 283.203C146.919 283.141 147.355 283.12 147.781 283.138C148.204 283.154 148.616 283.214 149.019 283.319C149.421 283.419 149.802 283.573 150.161 283.78ZM153.562 278.912L157.458 282.569L155.841 283.502L146.985 280.535L148.524 279.647L155.202 282.169L150.922 278.263L152.455 277.377L159.198 279.862L154.87 275.983L156.392 275.105L161.531 280.218L159.903 281.157L153.562 278.912ZM165.121 278.145L158.123 274.105L159.727 273.179L166.725 277.219L165.121 278.145ZM155.79 272.882C155.66 272.807 155.561 272.722 155.494 272.629C155.427 272.535 155.394 272.441 155.394 272.345C155.394 272.249 155.425 272.156 155.488 272.065C155.548 271.972 155.64 271.888 155.767 271.815C155.897 271.74 156.043 271.686 156.205 271.651C156.367 271.613 156.532 271.594 156.702 271.597C156.868 271.597 157.032 271.616 157.193 271.655C157.355 271.694 157.499 271.749 157.626 271.822C157.756 271.897 157.853 271.983 157.916 272.079C157.983 272.172 158.014 272.268 158.01 272.366C158.01 272.461 157.977 272.556 157.91 272.649C157.847 272.74 157.754 272.821 157.632 272.892C157.497 272.969 157.351 273.026 157.193 273.063C157.032 273.097 156.868 273.114 156.702 273.114C156.536 273.11 156.374 273.089 156.217 273.053C156.059 273.012 155.917 272.955 155.79 272.882ZM163.252 268.991C163.067 269.098 162.956 269.207 162.921 269.319C162.885 269.426 162.913 269.542 163.004 269.668C163.098 269.791 163.254 269.926 163.471 270.074C163.684 270.22 163.947 270.383 164.259 270.563L166.141 269.476L166.893 269.91L165.011 270.997L171.256 274.603L169.622 275.546L163.377 271.941L162.222 272.607L161.47 272.173L162.625 271.506C162.096 271.201 161.681 270.912 161.381 270.638C161.081 270.365 160.894 270.104 160.819 269.856C160.744 269.607 160.782 269.369 160.931 269.141C161.085 268.911 161.35 268.688 161.725 268.472C162.029 268.296 162.335 268.156 162.642 268.051C162.95 267.946 163.248 267.863 163.536 267.802L164.495 268.574C164.286 268.626 164.069 268.686 163.844 268.752C163.615 268.816 163.418 268.895 163.252 268.991ZM177.25 271.3C176.899 271.503 176.545 271.643 176.19 271.72C175.831 271.796 175.462 271.81 175.083 271.765C174.7 271.717 174.3 271.611 173.881 271.447C173.459 271.281 173.007 271.059 172.526 270.781L168.956 268.72L167.772 269.403L167.02 268.969L168.31 268.224L165.925 266.847L167.049 265.746L169.826 267.349L171.809 266.204L172.561 266.638L170.578 267.783L174.675 270.148C175.073 270.378 175.417 270.52 175.705 270.572C175.993 270.62 176.267 270.569 176.528 270.418C176.678 270.332 176.802 270.212 176.901 270.059C177.003 269.904 177.1 269.723 177.191 269.516L178.647 269.837C178.608 269.933 178.554 270.039 178.487 270.155C178.42 270.271 178.331 270.393 178.221 270.521C178.11 270.648 177.976 270.778 177.818 270.91C177.66 271.043 177.471 271.172 177.25 271.3Z" fill="white"/>
<defs>
<linearGradient id="paint0_linear" x1="204.5" y1="11" x2="246.5" y2="49" gradientUnits="userSpaceOnUse">
<stop stop-color="#010F5D"/>
<stop offset="1" stop-color="#FF1F38"/>
</linearGradient>
</defs>
</svg>
