<svg width="583" height="369" viewBox="0 0 583 369" fill="none" xmlns="http://www.w3.org/2000/svg">
<path d="M189.049 365.988C187.049 367.188 182.549 367.821 180.549 367.988L180.963 342C184.563 342 187.63 341 189.463 340C317.296 265.833 573.963 117.2 575.963 116C577.963 114.8 580.382 112.333 581.049 111.5V134.488C581.449 136.888 577.549 139.821 575.549 140.988C447.549 215.488 191.049 364.788 189.049 365.988Z" fill="#D3DAFF"/>
<path d="M1.04883 265.988L0.462891 236L3.46289 243C57.7962 274.667 166.863 338 170.463 340C174.063 342 178.963 342.167 180.963 342L180.549 367.988C176.949 368.388 174.049 367.488 173.049 366.988L1.04883 265.988Z" fill="#B0B9FF"/>
<path d="M168.548 338.988L3.04799 242.988C1.96289 242.5 0.868842 240.755 0.462274 239.5C-1.55412 233.275 3.49658 228.513 6.54799 226.988C131.715 153.488 383.848 5.58775 391.048 1.98775C398.248 -1.61225 406.715 0.487746 410.048 1.98775C463.215 32.6544 571.348 95.4877 578.548 101.488C582.425 104.718 582.707 107.9 581.595 110.488C580.642 112.706 578.664 114.488 577.048 115.488C452.715 187.488 201.648 332.988 192.048 338.988C189.98 340.28 187.891 341.132 185.847 341.647C181.922 342.638 178.165 342.39 175.048 341.647C172.251 340.981 169.97 339.915 168.548 338.988Z" fill="#F5F5F5"/>
<path d="M201.05 304.145L60.5 222.5C60 222 56.7477 219.486 56.3978 218.405C54.6625 213.04 59.0091 208.936 61.6351 207.622C169.352 144.278 386.334 16.8156 392.53 13.7131C398.726 10.6105 406.013 12.4203 408.881 13.7131C454.636 40.1421 547.694 94.2928 553.89 99.4637C557.226 102.248 557.469 104.99 556.512 107.22C555.692 109.132 553.99 110.667 552.599 111.529C445.6 173.58 229.535 298.974 221.274 304.145C219.494 305.259 217.696 305.992 215.937 306.437C212.56 307.291 209.326 307.077 206.644 306.437C204.237 305.863 202.274 304.944 201.05 304.145Z" fill="#203BCD"/>
<path d="M201.05 304.145L60.5 222.5C60 222 56.7477 219.486 56.3978 218.405C54.6625 213.04 59.0091 208.936 61.6351 207.622C169.352 144.278 386.334 16.8156 392.53 13.7131C398.726 10.6105 406.013 12.4203 408.881 13.7131C454.636 40.1421 547.694 94.2928 553.89 99.4637C557.226 102.248 557.469 104.99 556.512 107.22C555.692 109.132 553.99 110.667 552.599 111.529C445.6 173.58 229.535 298.974 221.274 304.145C219.494 305.259 217.696 305.992 215.937 306.437C212.56 307.291 209.326 307.077 206.644 306.437C204.237 305.863 202.274 304.944 201.05 304.145Z" fill="url(#paint0_linear)"/>
<path d="M420 20.0001L69.9999 228L61.5009 223.5C48.0011 216 57.7385 209.718 61.5003 207.5C167.5 145 379.5 20.5001 390 15C400.331 9.58853 403 10.0001 409.5 14L420 20.0001Z" fill="#D3DAFF"/>
<path d="M400.5 31.5L401.5 11C404.3 11 406.333 12 407 12.5C453.833 40 550.134 95.1338 555 100C560.5 105.5 557 108.5 553 111.5L544 116.5L400.5 31.5Z" fill="#B0B9FF"/>
<path d="M488 83.5V72.5L499 66V77L488 83.5Z" fill="#D3DAFF"/>
<path d="M450.403 47.6974L458 42L499 66L489.032 72.3432C488.399 72.7464 487.593 72.7607 486.945 72.3803L450.59 51.0218C449.359 50.2983 449.261 48.5544 450.403 47.6974Z" fill="#F5F5F5"/>
<path d="M463 51L484 63.5" stroke="#010F5D" stroke-width="1.5" stroke-linecap="round"/>
<path d="M74 269.5L108.5 289" stroke="black" stroke-width="1.5" stroke-linecap="round"/>
<path d="M68 294L94.5 309" stroke="#010F5D" stroke-opacity="0.3" stroke-width="5" stroke-linecap="round"/>
<path d="M139.5 335.5L144 338" stroke="#010F5D" stroke-opacity="0.3" stroke-width="5" stroke-linecap="round"/>
<path d="M126 328L130.5 330.5" stroke="#010F5D" stroke-opacity="0.3" stroke-width="5" stroke-linecap="round"/>
<path d="M114 321L118.5 323.5" stroke="#010F5D" stroke-opacity="0.3" stroke-width="5" stroke-linecap="round"/>
<path d="M45.5 280.5L50 283" stroke="#010F5D" stroke-opacity="0.3" stroke-width="5" stroke-linecap="round"/>
<path d="M32 273L36.5 275.5" stroke="#010F5D" stroke-opacity="0.3" stroke-width="5" stroke-linecap="round"/>
<path d="M20 266L24.5 268.5" stroke="#010F5D" stroke-opacity="0.3" stroke-width="5" stroke-linecap="round"/>
<path d="M114.465 233.047L115.59 228.823L117.23 229.421L116.312 232.692L121.984 232.158L123.014 233.102L115.164 233.772L114.465 233.047ZM124.07 228.712C123.79 228.787 123.508 228.847 123.224 228.893C122.939 228.939 122.655 228.959 122.371 228.955C122.087 228.945 121.803 228.904 121.518 228.832C121.234 228.759 120.952 228.641 120.672 228.479C120.364 228.302 120.155 228.106 120.044 227.892C119.934 227.677 119.912 227.458 119.979 227.232C120.042 227.004 120.188 226.776 120.417 226.548C120.646 226.316 120.944 226.094 121.311 225.882C121.603 225.713 121.917 225.564 122.253 225.434C122.588 225.304 122.906 225.196 123.206 225.11C123.506 225.018 123.766 224.95 123.987 224.905C124.212 224.857 124.36 224.83 124.431 224.826L125.1 225.656C124.994 225.663 124.836 225.691 124.627 225.738C124.413 225.784 124.183 225.844 123.934 225.92C123.685 225.99 123.433 226.075 123.176 226.173C122.92 226.27 122.693 226.376 122.495 226.49C122.286 226.611 122.126 226.728 122.016 226.842C121.905 226.952 121.836 227.055 121.809 227.153C121.785 227.249 121.799 227.339 121.85 227.423C121.901 227.503 121.984 227.576 122.099 227.642C122.189 227.695 122.286 227.732 122.389 227.755C122.491 227.778 122.602 227.787 122.72 227.782C122.839 227.778 122.969 227.762 123.111 227.734C123.253 227.707 123.411 227.671 123.585 227.625L125.106 227.218C125.528 227.107 125.927 227.02 126.302 226.959C126.673 226.895 127.028 226.863 127.368 226.863C127.703 226.861 128.019 226.895 128.315 226.965C128.615 227.034 128.897 227.144 129.161 227.297C129.501 227.493 129.742 227.705 129.884 227.933C130.026 228.156 130.073 228.388 130.026 228.63C129.982 228.869 129.846 229.112 129.617 229.358C129.392 229.602 129.077 229.841 128.67 230.076C128.331 230.272 127.981 230.437 127.622 230.571C127.271 230.706 126.943 230.817 126.639 230.906C126.336 230.99 126.071 231.054 125.846 231.097C125.625 231.138 125.479 231.161 125.408 231.166L124.721 230.325C124.8 230.321 124.95 230.295 125.171 230.25C125.388 230.202 125.633 230.141 125.905 230.065C126.178 229.99 126.452 229.902 126.728 229.802C127.009 229.7 127.249 229.59 127.451 229.474C127.608 229.383 127.749 229.286 127.871 229.184C127.989 229.079 128.07 228.973 128.114 228.866C128.153 228.756 128.147 228.648 128.096 228.541C128.045 228.429 127.926 228.32 127.741 228.213C127.531 228.092 127.277 228.039 126.977 228.052C126.677 228.066 126.34 228.122 125.965 228.22L124.07 228.712ZM135.51 226.12C135.159 226.323 134.806 226.463 134.451 226.54C134.091 226.615 133.722 226.63 133.344 226.585C132.961 226.537 132.56 226.431 132.142 226.267C131.719 226.101 131.268 225.878 130.786 225.6L127.216 223.539L126.032 224.223L125.28 223.789L126.571 223.044L124.185 221.667L125.31 220.566L128.086 222.169L130.07 221.024L130.822 221.458L128.838 222.603L132.935 224.968C133.334 225.198 133.677 225.339 133.965 225.392C134.253 225.44 134.528 225.388 134.788 225.238C134.938 225.152 135.062 225.032 135.161 224.879C135.264 224.724 135.36 224.543 135.451 224.336L136.908 224.657C136.868 224.753 136.815 224.859 136.748 224.975C136.681 225.091 136.592 225.213 136.481 225.341C136.371 225.468 136.237 225.598 136.079 225.73C135.921 225.862 135.731 225.992 135.51 226.12ZM134.719 219.645C134.648 219.468 134.605 219.299 134.589 219.139C134.577 218.978 134.599 218.824 134.654 218.678C134.713 218.53 134.81 218.388 134.944 218.251C135.079 218.114 135.258 217.981 135.483 217.851C135.609 217.778 135.742 217.709 135.88 217.642L137.235 218.425C137.157 218.443 137.054 218.484 136.928 218.548C136.797 218.61 136.663 218.68 136.525 218.76C136.241 218.924 136.034 219.126 135.903 219.365C135.773 219.6 135.692 219.845 135.661 220.1L140.663 222.988L139.035 223.928L132.038 219.888L133.376 219.116L134.719 219.645ZM144.727 220.642L137.729 216.602L139.334 215.676L146.331 219.716L144.727 220.642ZM135.397 215.379C135.266 215.303 135.168 215.219 135.101 215.126C135.034 215.032 135 214.938 135 214.842C135 214.746 135.032 214.653 135.095 214.562C135.154 214.468 135.247 214.385 135.373 214.312C135.503 214.237 135.649 214.182 135.811 214.148C135.973 214.109 136.139 214.091 136.308 214.094C136.474 214.094 136.638 214.113 136.8 214.152C136.962 214.19 137.106 214.246 137.232 214.319C137.362 214.394 137.459 214.48 137.522 214.575C137.589 214.669 137.621 214.765 137.617 214.863C137.617 214.958 137.583 215.053 137.516 215.146C137.453 215.237 137.36 215.318 137.238 215.389C137.104 215.466 136.958 215.523 136.8 215.56C136.638 215.594 136.474 215.611 136.308 215.611C136.143 215.606 135.981 215.586 135.823 215.549C135.665 215.508 135.523 215.451 135.397 215.379ZM144.333 213.959C144.273 213.802 144.252 213.636 144.268 213.463C144.283 213.286 144.335 213.11 144.421 212.937C144.512 212.762 144.639 212.593 144.8 212.431C144.958 212.267 145.15 212.12 145.375 211.99C145.801 211.744 146.225 211.57 146.647 211.467C147.07 211.365 147.496 211.326 147.926 211.351C148.356 211.376 148.791 211.465 149.229 211.618C149.671 211.768 150.121 211.975 150.578 212.24L154.93 214.752L153.302 215.692L148.873 213.135C148.325 212.818 147.828 212.636 147.382 212.588C146.936 212.536 146.507 212.628 146.097 212.865C145.931 212.961 145.789 213.075 145.671 213.207C145.552 213.339 145.458 213.474 145.386 213.61C145.315 213.747 145.268 213.879 145.244 214.007C145.221 214.134 145.217 214.241 145.233 214.328L150.448 217.339L148.82 218.279L141.822 214.239L143.048 213.532L144.333 213.959ZM161.533 212.956C161.967 212.705 162.315 212.484 162.575 212.293C162.84 212.104 163.019 211.932 163.114 211.777C163.217 211.622 163.234 211.48 163.167 211.35C163.104 211.218 162.958 211.085 162.729 210.953C162.473 210.805 162.216 210.728 161.96 210.721C161.707 210.712 161.427 210.76 161.119 210.864C160.811 210.969 160.458 211.125 160.059 211.333C159.661 211.54 159.193 211.785 158.656 212.067C158.609 212.159 158.581 212.259 158.573 212.368C158.565 212.478 158.577 212.587 158.609 212.696C158.648 212.806 158.707 212.913 158.786 213.018C158.873 213.122 158.988 213.216 159.13 213.298C159.319 213.407 159.511 213.474 159.704 213.5C159.901 213.522 160.099 213.513 160.296 213.472C160.497 213.433 160.701 213.368 160.906 213.277C161.115 213.184 161.324 213.077 161.533 212.956ZM156.625 209.596C156.756 209.489 156.856 209.379 156.927 209.265C157.002 209.149 157.038 209.03 157.034 208.909C157.026 208.786 156.971 208.661 156.868 208.534C156.766 208.406 156.602 208.277 156.377 208.147C155.99 207.924 155.607 207.828 155.228 207.86C154.853 207.89 154.445 208.032 154.003 208.287C153.801 208.404 153.634 208.521 153.5 208.639C153.369 208.756 153.288 208.873 153.257 208.991C153.221 209.108 153.245 209.228 153.328 209.354C153.411 209.475 153.565 209.6 153.79 209.73C153.944 209.819 154.111 209.893 154.293 209.952C154.478 210.009 154.67 210.051 154.867 210.078C155.061 210.103 155.254 210.115 155.447 210.113C155.641 210.106 155.824 210.086 155.998 210.054L156.625 209.596ZM156.323 207.037C156.643 207.057 156.916 207.089 157.14 207.132C157.361 207.173 157.551 207.239 157.709 207.33C157.993 207.495 158.226 207.675 158.407 207.87C158.589 208.062 158.696 208.269 158.727 208.493C158.759 208.716 158.699 208.955 158.549 209.21C158.403 209.463 158.141 209.733 157.762 210.02L156.081 211.312L156.992 211.715L158.727 210.782C159.311 210.473 159.852 210.226 160.349 210.044C160.847 209.857 161.316 209.737 161.758 209.682C162.2 209.627 162.621 209.64 163.019 209.719C163.414 209.797 163.801 209.945 164.18 210.164C164.606 210.41 164.88 210.666 165.003 210.933C165.129 211.202 165.123 211.481 164.985 211.77C164.851 212.062 164.592 212.366 164.209 212.683C163.83 212.997 163.345 213.325 162.753 213.667C161.821 214.205 160.957 214.517 160.16 214.603C159.366 214.688 158.605 214.519 157.875 214.098C157.689 213.991 157.547 213.872 157.448 213.742C157.354 213.615 157.296 213.481 157.277 213.342C157.253 213.201 157.263 213.059 157.306 212.915C157.35 212.772 157.417 212.633 157.508 212.498C157.322 212.578 157.135 212.634 156.945 212.666C156.756 212.697 156.558 212.702 156.353 212.679C156.148 212.656 155.933 212.605 155.708 212.525C155.487 212.443 155.248 212.328 154.991 212.18C154.806 212.073 154.691 211.964 154.648 211.852C154.605 211.736 154.607 211.619 154.654 211.5C154.701 211.382 154.784 211.261 154.903 211.138C155.025 211.013 155.153 210.886 155.287 210.758C155.09 210.845 154.869 210.909 154.624 210.95C154.38 210.986 154.127 210.998 153.867 210.984C153.61 210.968 153.35 210.925 153.085 210.854C152.825 210.781 152.578 210.678 152.345 210.543C151.998 210.343 151.749 210.128 151.599 209.901C151.449 209.668 151.394 209.429 151.433 209.183C151.473 208.937 151.607 208.688 151.836 208.438C152.065 208.187 152.389 207.941 152.807 207.7C153.186 207.481 153.553 207.308 153.908 207.18C154.259 207.05 154.607 206.968 154.95 206.934C155.029 206.806 155.11 206.694 155.193 206.596C155.276 206.493 155.372 206.396 155.483 206.305C155.593 206.209 155.724 206.114 155.874 206.018C156.02 205.92 156.199 205.81 156.412 205.687L156.655 205.546L157.78 206.196L156.323 207.037ZM139.849 246.546C139.789 246.388 139.768 246.223 139.783 246.05C139.799 245.872 139.85 245.697 139.937 245.524C140.028 245.348 140.154 245.18 140.316 245.018C140.474 244.854 140.666 244.707 140.89 244.577C141.317 244.331 141.741 244.157 142.163 244.054C142.586 243.952 143.012 243.913 143.442 243.938C143.872 243.963 144.306 244.052 144.745 244.204C145.187 244.355 145.637 244.562 146.094 244.826L150.446 247.339L148.818 248.278L144.389 245.722C143.841 245.405 143.343 245.223 142.897 245.175C142.451 245.123 142.023 245.215 141.613 245.452C141.447 245.548 141.305 245.662 141.186 245.794C141.068 245.926 140.973 246.06 140.902 246.197C140.831 246.334 140.784 246.466 140.76 246.593C140.737 246.721 140.733 246.828 140.748 246.915L145.964 249.926L144.336 250.866L137.338 246.826L138.564 246.118L139.849 246.546ZM149.459 240.922C149.069 241.148 148.737 241.403 148.465 241.688C148.192 241.972 147.993 242.267 147.867 242.573L146.381 242.241C146.468 242.054 146.566 241.877 146.677 241.708C146.791 241.537 146.928 241.372 147.085 241.213C147.247 241.051 147.433 240.891 147.642 240.734C147.851 240.577 148.096 240.417 148.376 240.256C148.944 239.927 149.479 239.696 149.98 239.562C150.478 239.425 150.969 239.374 151.455 239.408C151.94 239.438 152.429 239.547 152.923 239.736C153.416 239.925 153.939 240.179 154.492 240.498L158.393 242.751L157.156 243.465L155.942 243.031C156.076 243.409 156.058 243.75 155.889 244.053C155.715 244.353 155.393 244.639 154.924 244.911C154.553 245.125 154.172 245.29 153.781 245.406C153.39 245.522 152.996 245.586 152.597 245.598C152.202 245.607 151.81 245.562 151.419 245.464C151.028 245.366 150.647 245.21 150.276 244.996C149.901 244.78 149.647 244.551 149.513 244.309C149.375 244.065 149.341 243.818 149.412 243.567C149.479 243.314 149.641 243.062 149.898 242.809C150.158 242.553 150.497 242.305 150.916 242.064C151.117 241.947 151.308 241.846 151.49 241.759C151.676 241.671 151.845 241.595 151.999 241.534C152.149 241.47 152.277 241.419 152.384 241.38C152.495 241.339 152.571 241.308 152.615 241.288C152.323 241.119 152.052 240.972 151.804 240.847C151.551 240.719 151.305 240.632 151.064 240.584C150.819 240.534 150.568 240.532 150.312 240.58C150.055 240.628 149.771 240.742 149.459 240.922ZM154.219 244.019C154.511 243.85 154.721 243.656 154.847 243.437C154.977 243.216 155.036 242.964 155.024 242.679L153.444 241.766C153.412 241.784 153.355 241.813 153.272 241.852C153.185 241.888 153.089 241.933 152.982 241.985C152.875 242.033 152.767 242.084 152.656 242.139C152.55 242.191 152.459 242.239 152.384 242.282C152.1 242.446 151.865 242.602 151.679 242.751C151.498 242.896 151.376 243.04 151.312 243.181C151.249 243.318 151.255 243.453 151.33 243.588C151.405 243.718 151.559 243.85 151.792 243.984C152.238 244.242 152.662 244.366 153.065 244.357C153.467 244.343 153.852 244.23 154.219 244.019ZM162.321 240.483L160.692 241.423L153.695 237.383L154.867 236.707L156.335 237.192C156.11 236.811 156.067 236.454 156.205 236.119C156.343 235.784 156.655 235.476 157.14 235.196C157.626 234.916 158.129 234.746 158.65 234.687C159.171 234.623 159.698 234.656 160.231 234.786C160.112 234.417 160.144 234.061 160.325 233.719C160.507 233.373 160.854 233.052 161.367 232.756C161.723 232.551 162.098 232.407 162.492 232.325C162.887 232.238 163.287 232.21 163.694 232.24C164.101 232.265 164.509 232.343 164.919 232.475C165.33 232.608 165.731 232.786 166.121 233.012L170.692 235.651L169.058 236.594L164.404 233.907C164.14 233.755 163.895 233.641 163.67 233.566C163.449 233.488 163.244 233.443 163.055 233.429C162.865 233.415 162.69 233.43 162.528 233.473C162.362 233.514 162.204 233.578 162.054 233.665C161.778 233.824 161.586 234.021 161.48 234.256C161.369 234.488 161.314 234.769 161.314 235.097L166.482 238.081L164.854 239.02L160.166 236.314C159.704 236.047 159.293 235.894 158.934 235.856C158.575 235.817 158.222 235.898 157.874 236.098C157.602 236.255 157.421 236.461 157.33 236.713C157.235 236.964 157.205 237.243 157.241 237.551L162.321 240.483ZM177.834 230.939C177.767 231.101 177.674 231.262 177.556 231.421C177.437 231.581 177.303 231.736 177.153 231.886C177.007 232.034 176.849 232.173 176.679 232.303C176.51 232.433 176.338 232.548 176.164 232.648C175.624 232.961 175.061 233.192 174.477 233.342C173.893 233.488 173.303 233.557 172.707 233.551C172.111 233.539 171.521 233.454 170.937 233.294C170.353 233.13 169.792 232.893 169.255 232.583C168.707 232.267 168.271 231.935 167.947 231.589C167.619 231.24 167.422 230.892 167.355 230.543C167.288 230.19 167.359 229.844 167.568 229.504C167.781 229.162 168.148 228.841 168.669 228.54C169.131 228.274 169.613 228.082 170.114 227.966C170.615 227.845 171.122 227.794 171.635 227.812C172.148 227.83 172.658 227.915 173.163 228.065C173.668 228.216 174.155 228.426 174.625 228.697C174.771 228.782 174.913 228.866 175.051 228.95C175.189 229.035 175.322 229.118 175.448 229.2L171.079 231.722C171.466 231.941 171.843 232.106 172.21 232.218C172.577 232.329 172.93 232.392 173.269 232.406C173.613 232.417 173.942 232.382 174.258 232.3C174.578 232.215 174.882 232.09 175.17 231.924C175.537 231.712 175.809 231.495 175.987 231.274C176.16 231.051 176.279 230.8 176.342 230.523L177.834 230.939ZM173.133 229.415C172.517 229.06 171.929 228.864 171.369 228.827C170.809 228.791 170.303 228.898 169.853 229.149C169.593 229.308 169.417 229.476 169.326 229.651C169.236 229.822 169.212 229.997 169.255 230.177C169.303 230.355 169.409 230.533 169.575 230.71C169.741 230.888 169.952 231.058 170.209 231.22L173.234 229.473L173.133 229.415ZM179.109 228.891L178.008 228.255L182.484 225.671L183.585 226.307L179.109 228.891ZM177.292 227.842L176.19 227.206L180.666 224.622L181.767 225.258L177.292 227.842ZM182.225 218.042L182.835 218.476L185.582 220.608L184.594 221.179L180.988 219.542L180.26 219.176L182.225 218.042ZM179.632 219.539L180.177 219.921L182.989 222.105L182.001 222.676L178.312 220.998L177.667 220.673L179.632 219.539ZM192.192 217.333L196.087 220.99L194.471 221.923L185.614 218.956L187.153 218.068L193.831 220.59L189.551 216.683L191.085 215.798L197.828 218.283L193.5 214.404L195.021 213.525L200.16 218.638L198.532 219.578L192.192 217.333ZM208.486 213.244C208.419 213.406 208.327 213.566 208.208 213.726C208.09 213.885 207.956 214.04 207.806 214.19C207.66 214.339 207.502 214.478 207.332 214.607C207.162 214.737 206.991 214.852 206.817 214.953C206.276 215.265 205.714 215.496 205.13 215.646C204.546 215.792 203.955 215.862 203.36 215.855C202.764 215.844 202.173 215.758 201.589 215.599C201.005 215.435 200.445 215.198 199.908 214.888C199.359 214.571 198.923 214.239 198.6 213.893C198.272 213.545 198.075 213.196 198.008 212.847C197.941 212.494 198.012 212.148 198.221 211.808C198.434 211.467 198.801 211.145 199.322 210.845C199.784 210.578 200.265 210.387 200.766 210.27C201.268 210.15 201.775 210.098 202.288 210.117C202.801 210.135 203.31 210.219 203.815 210.369C204.321 210.52 204.808 210.731 205.278 211.002C205.424 211.086 205.566 211.17 205.704 211.255C205.842 211.339 205.974 211.422 206.101 211.504L201.731 214.026C202.118 214.245 202.495 214.41 202.862 214.522C203.229 214.634 203.582 214.696 203.922 214.71C204.265 214.721 204.595 214.686 204.911 214.604C205.23 214.52 205.534 214.394 205.822 214.228C206.189 214.016 206.462 213.8 206.639 213.579C206.813 213.355 206.931 213.105 206.995 212.827L208.486 213.244ZM203.786 211.719C203.17 211.364 202.582 211.168 202.022 211.132C201.461 211.095 200.956 211.202 200.506 211.453C200.245 211.612 200.07 211.78 199.979 211.955C199.888 212.126 199.865 212.302 199.908 212.482C199.955 212.659 200.062 212.837 200.228 213.015C200.393 213.192 200.605 213.362 200.861 213.524L203.886 211.778L203.786 211.719ZM213.03 211.209L211.396 212.152L201.609 206.503L202.989 205.412L213.03 211.209ZM218.567 208.169C217.983 208.506 217.383 208.739 216.768 208.866C216.152 208.994 215.544 209.039 214.944 209.003C214.348 208.964 213.772 208.857 213.215 208.682C212.659 208.502 212.144 208.275 211.67 208.002C211.157 207.705 210.749 207.385 210.445 207.041C210.141 206.693 209.961 206.341 209.906 205.985C209.855 205.627 209.938 205.274 210.155 204.926C210.376 204.575 210.751 204.247 211.28 203.941C211.54 203.791 211.799 203.662 212.055 203.555C212.316 203.446 212.572 203.355 212.825 203.282C213.073 203.207 213.316 203.148 213.553 203.107C213.786 203.064 214.011 203.032 214.228 203.012L214.938 203.846C214.769 203.852 214.581 203.872 214.376 203.904C214.175 203.933 213.969 203.974 213.76 204.027C213.551 204.079 213.344 204.144 213.139 204.222C212.933 204.299 212.744 204.388 212.57 204.488C212.239 204.702 212.016 204.913 211.901 205.12C211.783 205.326 211.759 205.533 211.83 205.742C211.901 205.952 212.061 206.165 212.31 206.382C212.562 206.596 212.886 206.817 213.281 207.045C214.113 207.525 214.897 207.793 215.631 207.848C216.365 207.903 217.03 207.758 217.626 207.414C218.013 207.19 218.283 206.966 218.437 206.74C218.587 206.513 218.682 206.276 218.721 206.03L220.172 206.443C220.136 206.559 220.085 206.685 220.018 206.819C219.951 206.954 219.856 207.095 219.734 207.243C219.607 207.389 219.449 207.539 219.26 207.694C219.075 207.851 218.844 208.01 218.567 208.169ZM224.602 203.461C224.926 203.275 225.131 203.081 225.218 202.88C225.305 202.675 225.299 202.469 225.2 202.262C225.102 202.05 224.928 201.84 224.679 201.633C224.427 201.423 224.125 201.217 223.774 201.014C223.426 200.814 223.071 200.641 222.708 200.495C222.345 200.349 221.982 200.249 221.619 200.194C221.256 200.135 220.896 200.13 220.541 200.18C220.186 200.226 219.847 200.342 219.523 200.529C219.199 200.716 218.998 200.912 218.919 201.117C218.836 201.32 218.844 201.527 218.943 201.739C219.041 201.946 219.219 202.156 219.476 202.368C219.728 202.577 220.026 202.781 220.369 202.98C220.555 203.087 220.754 203.193 220.967 203.297C221.181 203.398 221.404 203.49 221.636 203.574C221.869 203.654 222.11 203.72 222.359 203.773C222.603 203.823 222.852 203.848 223.105 203.848C223.357 203.848 223.61 203.818 223.862 203.759C224.115 203.7 224.362 203.6 224.602 203.461ZM225.366 200.095C225.867 200.384 226.278 200.692 226.598 201.018C226.917 201.344 227.111 201.679 227.178 202.023C227.249 202.364 227.172 202.712 226.947 203.065C226.718 203.416 226.307 203.762 225.715 204.104C225.123 204.446 224.524 204.683 223.916 204.815C223.304 204.945 222.698 204.991 222.098 204.955C221.502 204.916 220.922 204.805 220.358 204.62C219.793 204.436 219.26 204.199 218.759 203.909C218.254 203.618 217.84 203.308 217.516 202.98C217.196 202.649 217.003 202.312 216.936 201.968C216.873 201.622 216.952 201.273 217.173 200.922C217.398 200.569 217.804 200.223 218.392 199.883C218.98 199.544 219.578 199.31 220.186 199.182C220.798 199.053 221.402 199.007 221.998 199.046C222.597 199.082 223.182 199.194 223.75 199.381C224.322 199.565 224.861 199.803 225.366 200.095ZM232.508 199.964L230.88 200.904L223.883 196.864L225.055 196.187L226.523 196.672C226.298 196.292 226.255 195.934 226.393 195.599C226.531 195.264 226.843 194.957 227.328 194.677C227.814 194.396 228.317 194.227 228.838 194.167C229.359 194.103 229.886 194.137 230.418 194.266C230.3 193.897 230.332 193.542 230.513 193.2C230.695 192.854 231.042 192.532 231.555 192.236C231.91 192.031 232.285 191.888 232.68 191.806C233.075 191.719 233.475 191.691 233.882 191.72C234.288 191.745 234.697 191.824 235.107 191.956C235.518 192.088 235.918 192.267 236.309 192.493L240.88 195.131L239.246 196.074L234.592 193.388C234.328 193.235 234.083 193.121 233.858 193.046C233.637 192.969 233.432 192.923 233.242 192.91C233.053 192.896 232.877 192.911 232.716 192.954C232.55 192.995 232.392 193.059 232.242 193.145C231.966 193.305 231.774 193.502 231.668 193.737C231.557 193.969 231.502 194.249 231.502 194.577L236.67 197.561L235.042 198.501L230.353 195.794C229.892 195.528 229.481 195.375 229.122 195.336C228.763 195.297 228.41 195.378 228.062 195.579C227.79 195.736 227.608 195.941 227.518 196.194C227.423 196.445 227.393 196.724 227.429 197.031L232.508 199.964ZM248.022 190.42C247.955 190.582 247.862 190.742 247.743 190.902C247.625 191.061 247.491 191.216 247.341 191.367C247.195 191.515 247.037 191.654 246.867 191.784C246.698 191.914 246.526 192.029 246.352 192.129C245.811 192.441 245.249 192.672 244.665 192.823C244.081 192.969 243.491 193.038 242.895 193.031C242.299 193.02 241.709 192.934 241.125 192.775C240.54 192.611 239.98 192.374 239.443 192.064C238.895 191.747 238.459 191.416 238.135 191.069C237.807 190.721 237.61 190.372 237.543 190.024C237.476 189.67 237.547 189.324 237.756 188.985C237.969 188.643 238.336 188.322 238.857 188.021C239.319 187.754 239.8 187.563 240.302 187.447C240.803 187.326 241.31 187.275 241.823 187.293C242.336 187.311 242.845 187.395 243.351 187.546C243.856 187.696 244.343 187.907 244.813 188.178C244.959 188.262 245.101 188.347 245.239 188.431C245.377 188.515 245.51 188.598 245.636 188.68L241.267 191.203C241.653 191.421 242.03 191.587 242.397 191.698C242.765 191.81 243.118 191.873 243.457 191.886C243.801 191.898 244.13 191.862 244.446 191.78C244.766 191.696 245.069 191.571 245.358 191.404C245.725 191.192 245.997 190.976 246.175 190.755C246.348 190.532 246.467 190.281 246.53 190.003L248.022 190.42ZM243.321 188.896C242.705 188.54 242.117 188.344 241.557 188.308C240.996 188.271 240.491 188.379 240.041 188.629C239.781 188.789 239.605 188.956 239.514 189.132C239.424 189.302 239.4 189.478 239.443 189.658C239.491 189.836 239.597 190.013 239.763 190.191C239.929 190.369 240.14 190.539 240.396 190.7L243.422 188.954L243.321 188.896ZM251.18 189.909L249.954 189.202L255.774 185.842L256.999 186.55L251.18 189.909ZM260.654 182.649C260.978 182.462 261.183 182.268 261.27 182.068C261.357 181.863 261.351 181.656 261.252 181.449C261.154 181.237 260.98 181.028 260.731 180.82C260.479 180.611 260.177 180.404 259.825 180.202C259.478 180.001 259.123 179.828 258.76 179.682C258.397 179.536 258.034 179.436 257.67 179.381C257.307 179.322 256.948 179.318 256.593 179.368C256.238 179.413 255.898 179.53 255.575 179.716C255.251 179.903 255.05 180.099 254.971 180.304C254.888 180.507 254.896 180.714 254.995 180.926C255.093 181.134 255.271 181.343 255.527 181.555C255.78 181.765 256.078 181.969 256.421 182.167C256.607 182.274 256.806 182.38 257.019 182.485C257.232 182.585 257.455 182.677 257.688 182.762C257.921 182.841 258.162 182.907 258.41 182.96C258.655 183.01 258.904 183.035 259.156 183.035C259.409 183.035 259.662 183.005 259.914 182.946C260.167 182.887 260.413 182.788 260.654 182.649ZM261.418 179.282C261.919 179.572 262.33 179.879 262.649 180.205C262.969 180.531 263.162 180.866 263.23 181.21C263.301 181.552 263.224 181.899 262.999 182.252C262.77 182.603 262.359 182.95 261.767 183.291C261.175 183.633 260.575 183.87 259.968 184.002C259.356 184.132 258.75 184.179 258.15 184.142C257.554 184.104 256.974 183.992 256.409 183.807C255.845 183.623 255.312 183.386 254.811 183.097C254.306 182.805 253.891 182.495 253.568 182.167C253.248 181.836 253.055 181.499 252.988 181.155C252.924 180.809 253.003 180.46 253.224 180.109C253.449 179.756 253.856 179.41 254.444 179.07C255.032 178.731 255.63 178.497 256.238 178.37C256.85 178.24 257.453 178.194 258.049 178.233C258.649 178.27 259.233 178.381 259.802 178.568C260.374 178.753 260.913 178.991 261.418 179.282ZM262.445 175.771C262.385 175.614 262.364 175.449 262.379 175.275C262.395 175.098 262.446 174.922 262.533 174.749C262.624 174.574 262.75 174.405 262.912 174.243C263.07 174.079 263.262 173.932 263.486 173.802C263.913 173.556 264.337 173.382 264.759 173.279C265.182 173.177 265.608 173.138 266.038 173.163C266.468 173.188 266.902 173.277 267.341 173.43C267.783 173.58 268.233 173.787 268.69 174.052L273.042 176.564L271.414 177.504L266.985 174.947C266.437 174.631 265.939 174.448 265.493 174.4C265.047 174.348 264.619 174.44 264.209 174.677C264.043 174.773 263.901 174.887 263.782 175.019C263.664 175.151 263.569 175.286 263.498 175.422C263.427 175.559 263.38 175.691 263.356 175.819C263.333 175.946 263.329 176.053 263.344 176.14L268.56 179.151L266.932 180.091L259.934 176.051L261.16 175.344L262.445 175.771ZM277.674 172.748C278.151 172.473 278.303 172.141 278.13 171.754C277.96 171.364 277.427 170.911 276.531 170.393C276.081 170.134 275.671 169.931 275.3 169.785C274.929 169.639 274.587 169.545 274.275 169.501C273.968 169.456 273.685 169.457 273.429 169.505C273.172 169.553 272.932 169.642 272.707 169.771C272.411 169.942 272.18 170.148 272.014 170.39C271.848 170.627 271.748 170.908 271.712 171.234L275.282 173.295C275.799 173.293 276.251 173.246 276.638 173.155C277.021 173.062 277.366 172.926 277.674 172.748ZM279.012 173.275C278.558 173.537 278.057 173.71 277.508 173.794C276.959 173.878 276.393 173.873 275.809 173.777L276.525 174.553L275.365 175.223L265.579 169.573L266.958 168.49L270.712 170.657C270.704 170.493 270.723 170.333 270.771 170.178C270.818 170.019 270.889 169.871 270.984 169.734C271.079 169.593 271.193 169.463 271.327 169.344C271.457 169.223 271.604 169.116 271.765 169.023C272.223 168.759 272.703 168.573 273.204 168.466C273.709 168.356 274.232 168.323 274.773 168.367C275.31 168.408 275.86 168.525 276.425 168.719C276.989 168.908 277.559 169.169 278.135 169.501C278.787 169.877 279.278 170.241 279.61 170.592C279.941 170.938 280.133 171.27 280.184 171.586C280.235 171.903 280.158 172.203 279.953 172.485C279.748 172.768 279.434 173.031 279.012 173.275ZM285.739 168.167C286.063 167.98 286.268 167.787 286.355 167.586C286.442 167.381 286.436 167.175 286.337 166.967C286.239 166.756 286.065 166.546 285.816 166.339C285.564 166.129 285.262 165.923 284.911 165.72C284.563 165.519 284.208 165.346 283.845 165.201C283.482 165.055 283.119 164.954 282.756 164.9C282.393 164.841 282.033 164.836 281.678 164.886C281.323 164.932 280.984 165.048 280.66 165.235C280.336 165.422 280.135 165.617 280.056 165.823C279.973 166.025 279.981 166.233 280.08 166.445C280.178 166.652 280.356 166.862 280.613 167.073C280.865 167.283 281.163 167.487 281.506 167.685C281.692 167.792 281.891 167.898 282.104 168.003C282.318 168.103 282.541 168.196 282.773 168.28C283.006 168.36 283.247 168.426 283.496 168.478C283.74 168.528 283.989 168.553 284.242 168.553C284.494 168.553 284.747 168.524 284.999 168.464C285.252 168.405 285.499 168.306 285.739 168.167ZM286.503 164.801C287.004 165.09 287.415 165.398 287.735 165.723C288.054 166.049 288.248 166.384 288.315 166.728C288.386 167.07 288.309 167.417 288.084 167.771C287.855 168.122 287.444 168.468 286.852 168.81C286.26 169.151 285.66 169.388 285.053 169.521C284.441 169.65 283.835 169.697 283.235 169.661C282.639 169.622 282.059 169.51 281.495 169.326C280.93 169.141 280.397 168.904 279.896 168.615C279.391 168.323 278.977 168.013 278.653 167.685C278.333 167.355 278.14 167.018 278.073 166.674C278.01 166.327 278.089 165.979 278.31 165.628C278.535 165.275 278.941 164.928 279.529 164.589C280.117 164.249 280.715 164.016 281.323 163.888C281.935 163.758 282.539 163.713 283.135 163.751C283.734 163.788 284.319 163.899 284.887 164.086C285.459 164.271 285.998 164.509 286.503 164.801ZM288.708 160.534C288.317 160.759 287.986 161.015 287.713 161.299C287.441 161.584 287.242 161.879 287.115 162.185L285.629 161.853C285.716 161.666 285.815 161.489 285.925 161.32C286.04 161.149 286.176 160.984 286.334 160.824C286.496 160.663 286.681 160.503 286.89 160.346C287.1 160.189 287.344 160.029 287.624 159.867C288.193 159.539 288.728 159.308 289.229 159.174C289.726 159.037 290.217 158.986 290.703 159.02C291.188 159.049 291.678 159.159 292.171 159.348C292.665 159.537 293.187 159.791 293.74 160.11L297.641 162.362L296.404 163.077L295.19 162.643C295.325 163.021 295.307 163.362 295.137 163.665C294.964 163.965 294.642 164.251 294.172 164.522C293.801 164.737 293.42 164.902 293.03 165.018C292.639 165.134 292.244 165.198 291.846 165.209C291.451 165.219 291.058 165.174 290.667 165.076C290.277 164.978 289.896 164.822 289.525 164.608C289.15 164.391 288.895 164.162 288.761 163.921C288.623 163.677 288.589 163.43 288.66 163.179C288.728 162.926 288.889 162.673 289.146 162.421C289.406 162.165 289.746 161.917 290.164 161.675C290.365 161.559 290.557 161.458 290.738 161.371C290.924 161.282 291.094 161.207 291.248 161.146C291.398 161.082 291.526 161.031 291.632 160.992C291.743 160.951 291.82 160.92 291.863 160.9C291.571 160.731 291.301 160.584 291.052 160.459C290.8 160.331 290.553 160.243 290.312 160.196C290.068 160.145 289.817 160.144 289.56 160.192C289.304 160.24 289.02 160.354 288.708 160.534ZM293.468 163.63C293.76 163.462 293.969 163.268 294.095 163.049C294.225 162.828 294.285 162.575 294.273 162.291L292.692 161.378C292.661 161.396 292.603 161.425 292.52 161.464C292.434 161.5 292.337 161.544 292.23 161.597C292.124 161.645 292.015 161.696 291.905 161.751C291.798 161.803 291.707 161.851 291.632 161.894C291.348 162.058 291.113 162.214 290.928 162.362C290.746 162.508 290.624 162.652 290.561 162.793C290.498 162.93 290.504 163.065 290.579 163.2C290.654 163.33 290.808 163.462 291.04 163.596C291.486 163.854 291.911 163.978 292.313 163.969C292.716 163.955 293.101 163.842 293.468 163.63ZM295.625 156.753C295.554 156.575 295.511 156.406 295.495 156.247C295.483 156.085 295.505 155.931 295.56 155.785C295.619 155.637 295.716 155.495 295.85 155.358C295.984 155.221 296.164 155.088 296.389 154.958C296.515 154.885 296.647 154.816 296.785 154.75L298.141 155.532C298.062 155.551 297.96 155.592 297.833 155.655C297.703 155.717 297.569 155.788 297.431 155.867C297.147 156.031 296.939 156.233 296.809 156.472C296.679 156.707 296.598 156.952 296.566 157.207L301.569 160.095L299.941 161.035L292.943 156.995L294.281 156.223L295.625 156.753ZM302.874 155.282C303.328 155.544 303.748 155.747 304.135 155.893C304.525 156.037 304.889 156.13 305.224 156.174C305.556 156.215 305.861 156.209 306.142 156.156C306.418 156.102 306.671 156.008 306.899 155.876C307.215 155.694 307.458 155.485 307.628 155.251C307.797 155.016 307.863 154.767 307.823 154.502L304.259 152.445C303.734 152.479 303.261 152.538 302.838 152.623C302.412 152.705 302.041 152.837 301.725 153.019C301.457 153.174 301.295 153.338 301.24 153.511C301.181 153.682 301.208 153.862 301.323 154.051C301.437 154.24 301.629 154.437 301.897 154.642C302.165 154.847 302.491 155.061 302.874 155.282ZM300.304 152.547C300.735 152.299 301.198 152.12 301.696 152.011C302.193 151.901 302.732 151.864 303.312 151.898L299.754 149.844L301.127 148.757L311.168 154.554L310.002 155.227L308.652 154.81C308.727 154.963 308.762 155.124 308.758 155.295C308.754 155.462 308.713 155.627 308.634 155.791C308.555 155.955 308.443 156.113 308.297 156.266C308.151 156.418 307.971 156.556 307.758 156.679C307.241 156.978 306.702 157.173 306.142 157.264C305.577 157.353 305.009 157.362 304.437 157.291C303.86 157.218 303.29 157.078 302.726 156.871C302.157 156.661 301.611 156.405 301.086 156.102C300.616 155.831 300.233 155.539 299.937 155.227C299.641 154.91 299.45 154.595 299.363 154.28C299.28 153.963 299.312 153.656 299.458 153.357C299.608 153.057 299.89 152.787 300.304 152.547ZM308.056 145.399L308.666 145.834L311.413 147.966L310.424 148.537L306.819 146.9L306.091 146.534L308.056 145.399ZM305.463 146.896L306.008 147.279L308.82 149.463L307.831 150.034L304.143 148.356L303.498 148.031L305.463 146.896ZM320.077 149.335L318.413 148.724L319.337 145.484L313.724 146.017L312.659 145.053L319.893 144.404L321.231 144.807L320.077 149.335ZM164.835 258.079L165.445 258.513L168.192 260.646L167.203 261.217L163.598 259.579L162.87 259.214L164.835 258.079ZM162.242 259.576L162.787 259.959L165.599 262.143L164.61 262.713L160.922 261.035L160.277 260.711L162.242 259.576ZM168.857 255.757C169.595 255.331 170.259 255.001 170.847 254.766C171.435 254.527 171.979 254.356 172.481 254.253C172.737 254.201 172.996 254.168 173.256 254.154C173.517 254.136 173.773 254.14 174.026 254.168C174.278 254.195 174.525 254.246 174.766 254.322C175.007 254.397 175.241 254.5 175.47 254.633C175.814 254.831 176.058 255.029 176.204 255.227C176.35 255.425 176.416 255.623 176.4 255.819C176.384 256.014 176.299 256.209 176.145 256.403C175.991 256.597 175.786 256.79 175.53 256.984C175.908 256.815 176.295 256.674 176.69 256.56C177.081 256.444 177.477 256.377 177.88 256.359C178.278 256.338 178.687 256.376 179.105 256.471C179.524 256.567 179.95 256.74 180.384 256.991C180.775 257.216 181.063 257.44 181.248 257.661C181.43 257.879 181.525 258.1 181.533 258.324C181.544 258.545 181.475 258.769 181.325 258.997C181.172 259.223 180.954 259.455 180.674 259.694C180.394 259.933 180.055 260.182 179.656 260.439C179.257 260.692 178.817 260.958 178.336 261.236L175.997 262.586L166.513 257.11L168.857 255.757ZM177.59 260.354C178.071 260.076 178.458 259.828 178.75 259.609C179.042 259.386 179.232 259.178 179.318 258.987C179.409 258.793 179.397 258.609 179.283 258.433C179.169 258.253 178.946 258.067 178.614 257.876C178.286 257.687 177.965 257.558 177.649 257.49C177.333 257.417 177.008 257.402 176.672 257.445C176.341 257.486 175.991 257.583 175.624 257.736C175.257 257.884 174.857 258.083 174.422 258.334L173.227 259.024L176.56 260.949L177.59 260.354ZM172.161 258.409L173.351 257.722C173.765 257.483 174.087 257.265 174.316 257.069C174.545 256.869 174.687 256.682 174.742 256.509C174.797 256.336 174.77 256.172 174.659 256.017C174.545 255.86 174.355 255.705 174.091 255.552C173.862 255.42 173.623 255.332 173.375 255.289C173.122 255.243 172.844 255.247 172.54 255.299C172.236 255.351 171.9 255.456 171.533 255.613C171.162 255.768 170.746 255.979 170.284 256.246L169.349 256.786L172.161 258.409ZM185.129 257.314L178.131 253.274L179.735 252.348L186.733 256.388L185.129 257.314ZM175.798 252.051C175.668 251.976 175.569 251.891 175.502 251.798C175.435 251.704 175.402 251.61 175.402 251.514C175.402 251.419 175.433 251.325 175.496 251.234C175.556 251.141 175.648 251.057 175.775 250.984C175.905 250.909 176.051 250.855 176.213 250.82C176.375 250.782 176.54 250.763 176.71 250.766C176.876 250.766 177.04 250.785 177.201 250.824C177.363 250.863 177.507 250.918 177.634 250.991C177.764 251.066 177.861 251.152 177.924 251.248C177.991 251.341 178.022 251.437 178.018 251.535C178.018 251.63 177.985 251.725 177.918 251.818C177.855 251.91 177.762 251.99 177.64 252.061C177.505 252.139 177.359 252.195 177.201 252.232C177.04 252.266 176.876 252.283 176.71 252.283C176.544 252.279 176.382 252.258 176.225 252.222C176.067 252.181 175.925 252.124 175.798 252.051ZM194.047 251.578C193.98 251.74 193.887 251.9 193.769 252.06C193.65 252.219 193.516 252.374 193.366 252.524C193.22 252.673 193.062 252.812 192.892 252.941C192.723 253.071 192.551 253.186 192.377 253.287C191.837 253.599 191.274 253.83 190.69 253.98C190.106 254.126 189.516 254.196 188.92 254.189C188.324 254.178 187.734 254.092 187.15 253.933C186.566 253.769 186.005 253.532 185.468 253.222C184.92 252.905 184.484 252.573 184.16 252.227C183.832 251.879 183.635 251.53 183.568 251.181C183.501 250.828 183.572 250.482 183.781 250.142C183.994 249.801 184.361 249.479 184.882 249.179C185.344 248.912 185.826 248.721 186.327 248.604C186.828 248.484 187.335 248.432 187.848 248.451C188.361 248.469 188.871 248.553 189.376 248.703C189.881 248.854 190.368 249.065 190.838 249.336C190.984 249.42 191.126 249.504 191.264 249.589C191.402 249.673 191.535 249.756 191.661 249.838L187.292 252.36C187.679 252.579 188.056 252.744 188.423 252.856C188.79 252.968 189.143 253.03 189.482 253.044C189.826 253.055 190.155 253.02 190.471 252.938C190.791 252.854 191.095 252.728 191.383 252.562C191.75 252.35 192.022 252.134 192.2 251.913C192.373 251.689 192.492 251.439 192.555 251.161L194.047 251.578ZM189.346 250.053C188.73 249.698 188.142 249.502 187.582 249.466C187.021 249.429 186.516 249.536 186.066 249.787C185.806 249.946 185.63 250.114 185.539 250.289C185.449 250.46 185.425 250.636 185.468 250.816C185.516 250.993 185.622 251.171 185.788 251.349C185.954 251.527 186.165 251.696 186.422 251.858L189.447 250.112L189.346 250.053ZM192.409 246.2C192.35 246.043 192.328 245.878 192.344 245.705C192.36 245.527 192.411 245.352 192.498 245.178C192.589 245.003 192.715 244.834 192.877 244.673C193.035 244.509 193.226 244.362 193.451 244.232C193.877 243.986 194.302 243.811 194.724 243.709C195.146 243.606 195.573 243.567 196.003 243.593C196.433 243.618 196.867 243.706 197.305 243.859C197.747 244.01 198.197 244.217 198.655 244.481L203.006 246.993L201.378 247.933L196.95 245.377C196.401 245.06 195.904 244.878 195.458 244.83C195.012 244.777 194.584 244.87 194.174 245.107C194.008 245.202 193.866 245.316 193.747 245.448C193.629 245.581 193.534 245.715 193.463 245.852C193.392 245.988 193.345 246.121 193.321 246.248C193.297 246.376 193.293 246.483 193.309 246.569L198.525 249.58L196.897 250.52L189.899 246.481L191.125 245.773L192.409 246.2ZM206.969 244.705L197.574 242.05L199.255 241.079L206.401 243.297L202.529 239.189L204.228 238.208L208.817 243.639L206.969 244.705ZM217.687 237.93C217.62 238.092 217.528 238.252 217.409 238.412C217.291 238.571 217.157 238.726 217.007 238.877C216.861 239.025 216.703 239.164 216.533 239.294C216.363 239.424 216.192 239.539 216.018 239.639C215.477 239.951 214.915 240.182 214.331 240.333C213.747 240.479 213.157 240.548 212.561 240.541C211.965 240.53 211.375 240.444 210.79 240.285C210.206 240.121 209.646 239.884 209.109 239.574C208.56 239.257 208.124 238.926 207.801 238.579C207.473 238.231 207.276 237.882 207.209 237.534C207.142 237.18 207.213 236.834 207.422 236.495C207.635 236.153 208.002 235.832 208.523 235.531C208.985 235.264 209.466 235.073 209.967 234.957C210.469 234.836 210.976 234.785 211.489 234.803C212.002 234.821 212.511 234.905 213.016 235.056C213.522 235.206 214.009 235.417 214.479 235.688C214.625 235.772 214.767 235.857 214.905 235.941C215.043 236.025 215.175 236.108 215.302 236.19L210.932 238.713C211.319 238.931 211.696 239.097 212.063 239.208C212.43 239.32 212.784 239.383 213.123 239.396C213.466 239.408 213.796 239.372 214.112 239.29C214.431 239.206 214.735 239.081 215.023 238.914C215.39 238.702 215.663 238.486 215.84 238.265C216.014 238.042 216.132 237.791 216.196 237.513L217.687 237.93ZM212.987 236.406C212.371 236.05 211.783 235.854 211.223 235.818C210.662 235.781 210.157 235.889 209.707 236.139C209.447 236.299 209.271 236.466 209.18 236.642C209.089 236.812 209.066 236.988 209.109 237.168C209.156 237.346 209.263 237.523 209.429 237.701C209.595 237.879 209.806 238.049 210.062 238.21L213.087 236.464L212.987 236.406ZM216.05 232.553C215.991 232.395 215.969 232.23 215.985 232.057C216.001 231.879 216.052 231.704 216.139 231.531C216.23 231.355 216.356 231.187 216.518 231.025C216.675 230.861 216.867 230.714 217.092 230.584C217.518 230.338 217.942 230.164 218.365 230.061C218.787 229.958 219.213 229.92 219.644 229.945C220.074 229.97 220.508 230.059 220.946 230.211C221.388 230.362 221.838 230.569 222.296 230.833L226.647 233.345L225.019 234.285L220.591 231.729C220.042 231.412 219.545 231.23 219.099 231.182C218.653 231.13 218.225 231.222 217.814 231.459C217.648 231.555 217.506 231.669 217.388 231.801C217.269 231.933 217.175 232.067 217.104 232.204C217.033 232.341 216.985 232.473 216.962 232.6C216.938 232.728 216.934 232.835 216.95 232.922L222.166 235.933L220.537 236.873L213.54 232.833L214.765 232.125L216.05 232.553ZM227.881 229.632C228.133 229.778 228.378 229.897 228.615 229.988C228.848 230.077 229.077 230.134 229.302 230.159C229.523 230.182 229.742 230.171 229.959 230.128C230.172 230.082 230.383 229.999 230.592 229.879C230.888 229.708 231.111 229.517 231.261 229.308C231.411 229.098 231.492 228.842 231.504 228.539L226.241 225.5L227.875 224.557L234.873 228.597L233.7 229.274L232.327 228.843C232.41 228.986 232.459 229.138 232.475 229.297C232.495 229.455 232.475 229.614 232.416 229.776C232.357 229.933 232.254 230.088 232.108 230.241C231.97 230.393 231.782 230.538 231.546 230.675C230.709 231.158 229.848 231.393 228.964 231.379C228.08 231.365 227.155 231.079 226.188 230.521L221.866 228.026L223.482 227.093L227.881 229.632ZM242.098 223.838C242.031 224 241.938 224.16 241.819 224.32C241.701 224.479 241.567 224.634 241.417 224.785C241.271 224.933 241.113 225.072 240.943 225.202C240.774 225.332 240.602 225.447 240.428 225.547C239.888 225.859 239.325 226.09 238.741 226.241C238.157 226.386 237.567 226.456 236.971 226.449C236.375 226.438 235.785 226.352 235.201 226.193C234.617 226.029 234.056 225.792 233.519 225.482C232.971 225.165 232.535 224.834 232.211 224.487C231.883 224.139 231.686 223.79 231.619 223.442C231.552 223.088 231.623 222.742 231.832 222.403C232.045 222.061 232.412 221.739 232.933 221.439C233.395 221.172 233.877 220.981 234.378 220.865C234.879 220.744 235.386 220.693 235.899 220.711C236.412 220.729 236.921 220.813 237.427 220.964C237.932 221.114 238.419 221.325 238.889 221.596C239.035 221.68 239.177 221.765 239.315 221.849C239.453 221.933 239.586 222.016 239.712 222.098L235.343 224.621C235.73 224.839 236.106 225.005 236.474 225.116C236.841 225.228 237.194 225.291 237.533 225.304C237.877 225.316 238.206 225.28 238.522 225.198C238.842 225.114 239.146 224.989 239.434 224.822C239.801 224.61 240.073 224.394 240.251 224.173C240.424 223.95 240.543 223.699 240.606 223.421L242.098 223.838ZM237.397 222.314C236.781 221.958 236.193 221.762 235.633 221.726C235.072 221.689 234.567 221.796 234.117 222.047C233.857 222.207 233.681 222.374 233.59 222.55C233.5 222.72 233.476 222.896 233.519 223.076C233.567 223.254 233.673 223.431 233.839 223.609C234.005 223.787 234.216 223.956 234.472 224.118L237.498 222.372L237.397 222.314ZM246.365 218.107C246.085 218.182 245.803 218.243 245.518 218.288C245.234 218.334 244.95 218.354 244.666 218.35C244.382 218.341 244.098 218.3 243.813 218.227C243.529 218.154 243.247 218.036 242.967 217.875C242.659 217.697 242.45 217.501 242.339 217.287C242.229 217.073 242.207 216.853 242.274 216.627C242.337 216.399 242.483 216.172 242.712 215.944C242.941 215.711 243.239 215.489 243.606 215.277C243.898 215.109 244.212 214.959 244.548 214.829C244.883 214.7 245.201 214.591 245.501 214.505C245.801 214.414 246.061 214.345 246.282 214.3C246.507 214.252 246.655 214.226 246.726 214.221L247.395 215.052C247.289 215.058 247.131 215.086 246.922 215.134C246.708 215.179 246.478 215.24 246.229 215.315C245.98 215.385 245.728 215.47 245.471 215.568C245.215 215.666 244.988 215.772 244.79 215.886C244.581 216.006 244.421 216.124 244.311 216.238C244.2 216.347 244.131 216.451 244.103 216.549C244.08 216.644 244.094 216.734 244.145 216.819C244.196 216.898 244.279 216.971 244.394 217.037C244.484 217.09 244.581 217.127 244.684 217.15C244.786 217.173 244.897 217.182 245.015 217.177C245.134 217.173 245.264 217.157 245.406 217.13C245.548 217.102 245.706 217.066 245.88 217.02L247.401 216.614C247.823 216.502 248.222 216.415 248.597 216.354C248.968 216.29 249.323 216.258 249.663 216.258C249.998 216.256 250.314 216.29 250.61 216.361C250.91 216.429 251.192 216.54 251.456 216.692C251.796 216.888 252.037 217.1 252.179 217.328C252.321 217.551 252.368 217.784 252.321 218.025C252.277 218.264 252.141 218.507 251.912 218.753C251.687 218.997 251.372 219.236 250.965 219.471C250.626 219.667 250.276 219.832 249.917 219.966C249.566 220.101 249.238 220.212 248.934 220.301C248.63 220.386 248.366 220.449 248.141 220.493C247.92 220.534 247.774 220.557 247.703 220.561L247.016 219.72C247.095 219.716 247.245 219.691 247.466 219.645C247.683 219.597 247.928 219.536 248.2 219.461C248.473 219.385 248.747 219.298 249.023 219.197C249.303 219.095 249.544 218.985 249.745 218.869C249.903 218.778 250.043 218.681 250.166 218.579C250.284 218.474 250.365 218.368 250.409 218.261C250.448 218.152 250.442 218.043 250.391 217.936C250.339 217.825 250.221 217.715 250.036 217.608C249.826 217.487 249.572 217.434 249.272 217.447C248.972 217.461 248.634 217.517 248.259 217.615L246.365 218.107ZM254.33 214.363C254.583 214.509 254.827 214.628 255.064 214.719C255.297 214.808 255.526 214.865 255.751 214.89C255.972 214.912 256.191 214.902 256.408 214.859C256.621 214.813 256.832 214.73 257.042 214.609C257.338 214.439 257.561 214.248 257.711 214.039C257.861 213.829 257.941 213.573 257.953 213.27L252.69 210.231L254.324 209.288L261.322 213.328L260.15 214.004L258.776 213.574C258.859 213.717 258.908 213.869 258.924 214.028C258.944 214.186 258.924 214.345 258.865 214.507C258.806 214.664 258.703 214.819 258.557 214.972C258.419 215.124 258.232 215.269 257.995 215.406C257.158 215.889 256.298 216.123 255.413 216.11C254.529 216.096 253.604 215.81 252.637 215.252L248.315 212.757L249.931 211.824L254.33 214.363ZM259.406 207.66C259.335 207.482 259.292 207.313 259.276 207.154C259.264 206.992 259.286 206.838 259.341 206.693C259.4 206.544 259.497 206.402 259.631 206.265C259.765 206.129 259.945 205.995 260.17 205.865C260.296 205.793 260.428 205.723 260.566 205.657L261.922 206.44C261.843 206.458 261.741 206.499 261.614 206.563C261.484 206.624 261.35 206.695 261.212 206.775C260.928 206.939 260.72 207.14 260.59 207.379C260.46 207.614 260.379 207.859 260.347 208.114L265.35 211.002L263.722 211.942L256.724 207.902L258.062 207.13L259.406 207.66ZM274.667 205.623L273.033 206.567L263.247 200.917L264.627 199.827L274.667 205.623ZM269.596 197.601L270.141 197.983L272.959 200.164L271.964 200.738L268.276 199.06L267.63 198.735L269.596 197.601ZM278.147 196.629C277.756 196.854 277.425 197.109 277.153 197.394C276.88 197.679 276.681 197.974 276.555 198.279L275.069 197.948C275.155 197.761 275.254 197.583 275.365 197.415C275.479 197.244 275.615 197.079 275.773 196.919C275.935 196.757 276.12 196.598 276.33 196.441C276.539 196.283 276.784 196.124 277.064 195.962C277.632 195.634 278.167 195.403 278.668 195.268C279.165 195.132 279.657 195.08 280.142 195.115C280.628 195.144 281.117 195.254 281.61 195.443C282.104 195.632 282.627 195.886 283.179 196.205L287.081 198.457L285.843 199.171L284.63 198.737C284.764 199.116 284.746 199.456 284.577 199.759C284.403 200.06 284.081 200.346 283.612 200.617C283.241 200.831 282.86 200.997 282.469 201.113C282.078 201.229 281.684 201.293 281.285 201.304C280.89 201.313 280.497 201.269 280.107 201.171C279.716 201.073 279.335 200.917 278.964 200.703C278.589 200.486 278.335 200.257 278.2 200.016C278.062 199.772 278.029 199.525 278.1 199.274C278.167 199.021 278.329 198.768 278.585 198.515C278.846 198.26 279.185 198.012 279.604 197.77C279.805 197.654 279.996 197.553 280.178 197.466C280.363 197.377 280.533 197.302 280.687 197.24C280.837 197.177 280.965 197.125 281.072 197.087C281.182 197.046 281.259 197.015 281.303 196.994C281.011 196.826 280.74 196.679 280.492 196.553C280.239 196.426 279.992 196.338 279.752 196.29C279.507 196.24 279.256 196.239 279 196.287C278.743 196.335 278.459 196.449 278.147 196.629ZM282.907 199.725C283.199 199.557 283.408 199.363 283.535 199.144C283.665 198.923 283.724 198.67 283.712 198.385L282.131 197.473C282.1 197.491 282.043 197.52 281.96 197.558C281.873 197.595 281.776 197.639 281.67 197.692C281.563 197.739 281.455 197.791 281.344 197.845C281.238 197.898 281.147 197.946 281.072 197.989C280.788 198.153 280.553 198.309 280.367 198.457C280.186 198.603 280.063 198.746 280 198.888C279.937 199.024 279.943 199.16 280.018 199.294C280.093 199.424 280.247 199.557 280.48 199.691C280.926 199.948 281.35 200.073 281.753 200.063C282.155 200.05 282.54 199.937 282.907 199.725ZM286.746 191.665C286.426 191.849 286.179 192.076 286.006 192.345C285.832 192.609 285.751 192.881 285.763 193.162L289.179 195.134C289.435 195.131 289.686 195.119 289.931 195.096C290.179 195.071 290.416 195.037 290.641 194.994C290.87 194.948 291.079 194.893 291.269 194.83C291.458 194.766 291.622 194.694 291.76 194.614C292.044 194.45 292.204 194.274 292.24 194.084C292.275 193.891 292.23 193.696 292.104 193.5C291.977 193.304 291.792 193.113 291.547 192.926C291.298 192.737 291.038 192.564 290.766 192.406C289.909 191.912 289.145 191.596 288.474 191.46C287.799 191.321 287.223 191.389 286.746 191.665ZM293.021 195.185C292.65 195.399 292.212 195.55 291.707 195.636C291.202 195.718 290.685 195.739 290.156 195.698L293.69 197.738L292.062 198.678L282.382 193.09L283.614 192.379L284.958 192.813C284.875 192.651 284.826 192.488 284.81 192.324C284.798 192.158 284.824 191.995 284.887 191.836C284.954 191.674 285.058 191.518 285.201 191.367C285.347 191.215 285.536 191.071 285.769 190.937C286.696 190.401 287.711 190.173 288.812 190.253C289.909 190.331 291.073 190.725 292.305 191.436C292.81 191.727 293.22 192.037 293.536 192.365C293.852 192.689 294.049 193.015 294.128 193.343C294.211 193.669 294.166 193.989 293.992 194.303C293.818 194.618 293.495 194.912 293.021 195.185ZM295.167 186.803C294.847 186.988 294.6 187.215 294.427 187.483C294.253 187.748 294.172 188.02 294.184 188.3L297.6 190.272C297.856 190.27 298.107 190.257 298.352 190.235C298.6 190.21 298.837 190.175 299.062 190.132C299.291 190.087 299.5 190.032 299.69 189.968C299.879 189.904 300.043 189.833 300.181 189.753C300.465 189.589 300.625 189.412 300.661 189.223C300.696 189.029 300.651 188.835 300.524 188.639C300.398 188.443 300.213 188.251 299.968 188.064C299.719 187.875 299.459 187.702 299.186 187.545C298.33 187.051 297.566 186.735 296.895 186.598C296.22 186.459 295.644 186.528 295.167 186.803ZM301.442 190.324C301.071 190.538 300.633 190.688 300.128 190.775C299.623 190.857 299.106 190.877 298.577 190.836L302.111 192.877L300.483 193.817L290.803 188.228L292.035 187.518L293.379 187.952C293.296 187.79 293.246 187.627 293.231 187.463C293.219 187.297 293.245 187.134 293.308 186.974C293.375 186.812 293.479 186.656 293.621 186.506C293.767 186.353 293.957 186.21 294.19 186.075C295.117 185.54 296.132 185.312 297.233 185.392C298.33 185.469 299.494 185.863 300.726 186.574C301.231 186.866 301.641 187.176 301.957 187.504C302.273 187.827 302.47 188.153 302.549 188.481C302.632 188.807 302.587 189.127 302.413 189.442C302.239 189.756 301.916 190.05 301.442 190.324ZM307.915 186.429L306.281 187.373L296.495 181.723L297.875 180.633L307.915 186.429ZM310.481 184.948L303.483 180.908L305.088 179.982L312.085 184.022L310.481 184.948ZM301.151 179.685C301.021 179.61 300.922 179.525 300.855 179.432C300.788 179.338 300.754 179.244 300.754 179.148C300.754 179.053 300.786 178.959 300.849 178.868C300.908 178.775 301.001 178.691 301.127 178.618C301.257 178.543 301.403 178.489 301.565 178.454C301.727 178.416 301.893 178.397 302.062 178.4C302.228 178.4 302.392 178.419 302.554 178.458C302.716 178.497 302.86 178.552 302.986 178.625C303.116 178.701 303.213 178.786 303.276 178.882C303.343 178.975 303.375 179.071 303.371 179.169C303.371 179.264 303.337 179.359 303.27 179.452C303.207 179.544 303.114 179.624 302.992 179.695C302.858 179.773 302.712 179.83 302.554 179.866C302.392 179.9 302.228 179.917 302.062 179.917C301.897 179.913 301.735 179.892 301.577 179.856C301.419 179.815 301.277 179.758 301.151 179.685ZM317.635 180.975C317.051 181.313 316.451 181.545 315.835 181.673C315.22 181.8 314.612 181.846 314.012 181.809C313.416 181.771 312.84 181.663 312.283 181.488C311.727 181.308 311.212 181.081 310.738 180.808C310.225 180.512 309.816 180.192 309.513 179.848C309.209 179.499 309.029 179.147 308.974 178.791C308.922 178.434 309.005 178.081 309.222 177.732C309.443 177.381 309.818 177.053 310.347 176.748C310.608 176.597 310.866 176.468 311.123 176.361C311.383 176.252 311.64 176.161 311.892 176.088C312.141 176.013 312.384 175.955 312.621 175.914C312.853 175.87 313.078 175.838 313.296 175.818L314.006 176.652C313.836 176.659 313.649 176.678 313.444 176.71C313.242 176.74 313.037 176.781 312.828 176.833C312.619 176.885 312.411 176.95 312.206 177.028C312.001 177.105 311.812 177.194 311.638 177.294C311.306 177.509 311.083 177.719 310.969 177.927C310.85 178.132 310.827 178.339 310.898 178.549C310.969 178.758 311.129 178.971 311.377 179.188C311.63 179.402 311.954 179.623 312.348 179.851C313.181 180.332 313.965 180.599 314.699 180.654C315.433 180.709 316.098 180.564 316.694 180.22C317.081 179.997 317.351 179.772 317.505 179.547C317.655 179.319 317.75 179.082 317.789 178.836L319.239 179.249C319.204 179.366 319.153 179.491 319.086 179.625C319.018 179.76 318.924 179.901 318.801 180.049C318.675 180.195 318.517 180.345 318.328 180.5C318.142 180.658 317.911 180.816 317.635 180.975ZM318.372 173.407C317.981 173.633 317.649 173.888 317.377 174.173C317.105 174.457 316.905 174.753 316.779 175.058L315.293 174.726C315.38 174.54 315.479 174.362 315.589 174.193C315.703 174.022 315.84 173.857 315.998 173.698C316.159 173.536 316.345 173.376 316.554 173.219C316.763 173.062 317.008 172.902 317.288 172.741C317.856 172.413 318.391 172.181 318.893 172.047C319.39 171.91 319.881 171.859 320.367 171.893C320.852 171.923 321.342 172.032 321.835 172.221C322.328 172.41 322.851 172.664 323.404 172.983L327.305 175.236L326.068 175.95L324.854 175.516C324.988 175.894 324.971 176.235 324.801 176.538C324.627 176.839 324.306 177.124 323.836 177.396C323.465 177.61 323.084 177.775 322.693 177.891C322.303 178.007 321.908 178.071 321.509 178.083C321.115 178.092 320.722 178.047 320.331 177.949C319.94 177.851 319.56 177.695 319.189 177.481C318.814 177.265 318.559 177.036 318.425 176.794C318.287 176.55 318.253 176.303 318.324 176.052C318.391 175.8 318.553 175.547 318.81 175.294C319.07 175.039 319.41 174.79 319.828 174.549C320.029 174.432 320.221 174.331 320.402 174.244C320.588 174.156 320.757 174.08 320.911 174.019C321.061 173.955 321.19 173.904 321.296 173.865C321.407 173.824 321.484 173.793 321.527 173.773C321.235 173.604 320.965 173.457 320.716 173.332C320.463 173.204 320.217 173.117 319.976 173.069C319.731 173.019 319.481 173.017 319.224 173.065C318.968 173.113 318.683 173.227 318.372 173.407ZM323.131 176.504C323.423 176.335 323.633 176.141 323.759 175.923C323.889 175.702 323.948 175.449 323.937 175.164L322.356 174.251C322.324 174.27 322.267 174.298 322.184 174.337C322.097 174.373 322.001 174.418 321.894 174.47C321.788 174.518 321.679 174.569 321.568 174.624C321.462 174.676 321.371 174.724 321.296 174.767C321.012 174.931 320.777 175.087 320.592 175.236C320.41 175.381 320.288 175.525 320.225 175.666C320.161 175.803 320.167 175.939 320.242 176.073C320.317 176.203 320.471 176.335 320.704 176.469C321.15 176.727 321.574 176.851 321.977 176.842C322.38 176.828 322.764 176.715 323.131 176.504ZM331.99 172.688C331.639 172.891 331.286 173.031 330.931 173.108C330.572 173.184 330.203 173.198 329.824 173.153C329.441 173.105 329.04 172.999 328.622 172.835C328.2 172.669 327.748 172.446 327.266 172.169L323.696 170.108L322.512 170.791L321.76 170.357L323.051 169.612L320.665 168.235L321.79 167.134L324.566 168.737L326.55 167.592L327.302 168.026L325.318 169.171L329.415 171.536C329.814 171.766 330.157 171.908 330.445 171.96C330.733 172.008 331.008 171.957 331.268 171.806C331.418 171.72 331.542 171.6 331.641 171.447C331.744 171.292 331.84 171.111 331.931 170.904L333.388 171.225C333.348 171.321 333.295 171.427 333.228 171.543C333.161 171.659 333.072 171.781 332.961 171.909C332.851 172.036 332.717 172.166 332.559 172.298C332.401 172.431 332.211 172.56 331.99 172.688ZM335.604 170.445L328.606 166.405L330.211 165.479L337.209 169.518L335.604 170.445ZM326.274 165.181C326.144 165.106 326.045 165.022 325.978 164.928C325.911 164.835 325.877 164.74 325.877 164.645C325.877 164.549 325.909 164.456 325.972 164.364C326.031 164.271 326.124 164.188 326.25 164.115C326.38 164.04 326.526 163.985 326.688 163.951C326.85 163.912 327.016 163.894 327.186 163.896C327.351 163.896 327.515 163.916 327.677 163.954C327.839 163.993 327.983 164.049 328.109 164.122C328.239 164.197 328.336 164.282 328.399 164.378C328.466 164.472 328.498 164.567 328.494 164.665C328.494 164.761 328.46 164.855 328.393 164.949C328.33 165.04 328.237 165.121 328.115 165.192C327.981 165.269 327.835 165.326 327.677 165.362C327.515 165.397 327.351 165.414 327.186 165.414C327.02 165.409 326.858 165.389 326.7 165.352C326.542 165.311 326.4 165.254 326.274 165.181ZM341.687 165.867C342.01 165.68 342.215 165.486 342.302 165.286C342.389 165.081 342.383 164.875 342.285 164.667C342.186 164.455 342.012 164.246 341.764 164.038C341.511 163.829 341.209 163.623 340.858 163.42C340.51 163.219 340.155 163.046 339.792 162.9C339.429 162.754 339.066 162.654 338.703 162.6C338.34 162.54 337.98 162.536 337.625 162.586C337.27 162.631 336.931 162.748 336.607 162.934C336.283 163.121 336.082 163.317 336.003 163.522C335.92 163.725 335.928 163.932 336.027 164.144C336.125 164.352 336.303 164.561 336.56 164.773C336.812 164.983 337.11 165.187 337.454 165.385C337.639 165.492 337.838 165.598 338.052 165.703C338.265 165.803 338.488 165.895 338.721 165.98C338.953 166.059 339.194 166.125 339.443 166.178C339.687 166.228 339.936 166.253 340.189 166.253C340.441 166.253 340.694 166.223 340.947 166.164C341.199 166.105 341.446 166.006 341.687 165.867ZM342.45 162.5C342.952 162.79 343.362 163.097 343.682 163.423C344.001 163.749 344.195 164.084 344.262 164.428C344.333 164.77 344.256 165.117 344.031 165.47C343.802 165.821 343.392 166.168 342.8 166.509C342.208 166.851 341.608 167.088 341 167.22C340.388 167.35 339.782 167.397 339.182 167.36C338.586 167.322 338.006 167.21 337.442 167.025C336.877 166.841 336.345 166.604 335.843 166.315C335.338 166.023 334.924 165.713 334.6 165.385C334.28 165.055 334.087 164.717 334.02 164.373C333.957 164.027 334.036 163.678 334.257 163.327C334.482 162.974 334.888 162.628 335.476 162.288C336.064 161.949 336.662 161.715 337.27 161.588C337.882 161.458 338.486 161.412 339.082 161.451C339.682 161.488 340.266 161.599 340.834 161.786C341.406 161.971 341.945 162.209 342.45 162.5ZM343.477 158.989C343.418 158.832 343.396 158.667 343.412 158.493C343.427 158.316 343.479 158.14 343.566 157.967C343.656 157.792 343.783 157.623 343.945 157.461C344.102 157.297 344.294 157.15 344.519 157.02C344.945 156.774 345.369 156.6 345.792 156.497C346.214 156.395 346.64 156.356 347.07 156.381C347.501 156.406 347.935 156.495 348.373 156.648C348.815 156.798 349.265 157.006 349.723 157.27L354.074 159.782L352.446 160.722L348.018 158.165C347.469 157.849 346.972 157.666 346.526 157.618C346.08 157.566 345.652 157.658 345.241 157.895C345.075 157.991 344.933 158.105 344.815 158.237C344.696 158.369 344.602 158.504 344.531 158.64C344.46 158.777 344.412 158.909 344.389 159.037C344.365 159.164 344.361 159.272 344.377 159.358L349.592 162.369L347.964 163.309L340.967 159.269L342.192 158.562L343.477 158.989ZM357.755 153.596C358.209 153.859 358.629 154.062 359.016 154.208C359.407 154.352 359.77 154.445 360.106 154.489C360.437 154.53 360.743 154.524 361.023 154.471C361.299 154.417 361.552 154.323 361.781 154.191C362.097 154.009 362.339 153.8 362.509 153.566C362.679 153.331 362.744 153.082 362.705 152.817L359.141 150.76C358.616 150.794 358.142 150.853 357.72 150.937C357.293 151.019 356.922 151.152 356.607 151.334C356.338 151.489 356.177 151.653 356.121 151.826C356.062 151.997 356.09 152.177 356.204 152.366C356.319 152.555 356.51 152.752 356.778 152.957C357.047 153.162 357.372 153.375 357.755 153.596ZM355.186 150.862C355.616 150.614 356.08 150.435 356.577 150.326C357.074 150.216 357.613 150.179 358.193 150.213L354.635 148.159L356.009 147.072L366.049 152.868L364.883 153.542L363.533 153.125C363.608 153.277 363.644 153.439 363.64 153.61C363.636 153.776 363.595 153.942 363.516 154.106C363.437 154.27 363.324 154.428 363.178 154.581C363.032 154.733 362.853 154.871 362.639 154.994C362.122 155.293 361.584 155.488 361.023 155.579C360.459 155.668 359.89 155.677 359.318 155.606C358.742 155.533 358.172 155.393 357.607 155.186C357.039 154.976 356.492 154.72 355.967 154.417C355.498 154.146 355.115 153.854 354.819 153.542C354.523 153.225 354.331 152.91 354.245 152.595C354.162 152.278 354.193 151.971 354.339 151.672C354.489 151.372 354.771 151.102 355.186 150.862ZM373.245 148.127C373.178 148.288 373.085 148.449 372.967 148.609C372.848 148.768 372.714 148.923 372.564 149.073C372.418 149.222 372.26 149.361 372.09 149.49C371.921 149.62 371.749 149.735 371.575 149.836C371.035 150.148 370.472 150.379 369.888 150.529C369.304 150.675 368.714 150.745 368.118 150.738C367.522 150.726 366.932 150.641 366.348 150.482C365.764 150.317 365.203 150.081 364.667 149.771C364.118 149.454 363.682 149.122 363.358 148.776C363.031 148.427 362.833 148.079 362.766 147.73C362.699 147.377 362.77 147.031 362.979 146.691C363.192 146.349 363.559 146.028 364.08 145.727C364.542 145.461 365.024 145.269 365.525 145.153C366.026 145.033 366.533 144.981 367.046 144.999C367.56 145.018 368.069 145.102 368.574 145.252C369.079 145.403 369.566 145.614 370.036 145.885C370.182 145.969 370.324 146.053 370.462 146.138C370.601 146.222 370.733 146.305 370.859 146.387L366.49 148.909C366.877 149.128 367.254 149.293 367.621 149.405C367.988 149.517 368.341 149.579 368.68 149.593C369.024 149.604 369.353 149.569 369.669 149.487C369.989 149.403 370.293 149.277 370.581 149.111C370.948 148.899 371.22 148.683 371.398 148.462C371.571 148.238 371.69 147.988 371.753 147.71L373.245 148.127ZM368.544 146.602C367.929 146.247 367.34 146.051 366.78 146.015C366.22 145.978 365.714 146.085 365.264 146.336C365.004 146.495 364.828 146.663 364.738 146.838C364.647 147.009 364.623 147.185 364.667 147.365C364.714 147.542 364.82 147.72 364.986 147.898C365.152 148.075 365.363 148.245 365.62 148.407L368.645 146.661L368.544 146.602ZM382.13 143.742C381.779 143.945 381.425 144.085 381.07 144.163C380.711 144.238 380.342 144.253 379.963 144.207C379.58 144.159 379.18 144.053 378.761 143.889C378.339 143.723 377.887 143.501 377.406 143.223L373.836 141.162L372.652 141.846L371.9 141.412L373.19 140.666L370.805 139.289L371.929 138.189L374.706 139.792L376.689 138.647L377.441 139.081L375.458 140.226L379.555 142.591C379.953 142.821 380.297 142.962 380.585 143.014C380.873 143.062 381.147 143.011 381.408 142.861C381.558 142.774 381.682 142.654 381.781 142.502C381.883 142.347 381.98 142.166 382.071 141.958L383.527 142.28C383.488 142.375 383.434 142.481 383.367 142.597C383.3 142.714 383.211 142.836 383.101 142.963C382.99 143.091 382.856 143.221 382.698 143.353C382.54 143.485 382.351 143.615 382.13 143.742ZM381.339 137.268C381.268 137.09 381.225 136.922 381.209 136.762C381.197 136.6 381.219 136.446 381.274 136.301C381.333 136.153 381.43 136.01 381.564 135.873C381.698 135.737 381.878 135.603 382.103 135.474C382.229 135.401 382.361 135.331 382.499 135.265L383.855 136.048C383.776 136.066 383.674 136.107 383.547 136.171C383.417 136.232 383.283 136.303 383.145 136.383C382.861 136.547 382.653 136.748 382.523 136.988C382.393 137.222 382.312 137.467 382.28 137.722L387.283 140.61L385.655 141.55L378.657 137.511L379.995 136.738L381.339 137.268ZM387.569 133.459C387.179 133.685 386.847 133.94 386.575 134.225C386.303 134.51 386.103 134.805 385.977 135.11L384.491 134.778C384.578 134.592 384.676 134.414 384.787 134.245C384.901 134.074 385.038 133.909 385.195 133.75C385.357 133.588 385.543 133.428 385.752 133.271C385.961 133.114 386.206 132.954 386.486 132.793C387.054 132.465 387.589 132.233 388.09 132.099C388.588 131.962 389.079 131.911 389.565 131.945C390.05 131.975 390.539 132.084 391.033 132.273C391.526 132.462 392.049 132.716 392.602 133.035L396.503 135.288L395.266 136.002L394.052 135.568C394.186 135.946 394.169 136.287 393.999 136.59C393.825 136.891 393.504 137.176 393.034 137.448C392.663 137.662 392.282 137.827 391.891 137.943C391.501 138.059 391.106 138.123 390.707 138.135C390.313 138.144 389.92 138.099 389.529 138.001C389.138 137.903 388.757 137.747 388.386 137.533C388.012 137.317 387.757 137.088 387.623 136.846C387.485 136.602 387.451 136.355 387.522 136.104C387.589 135.852 387.751 135.599 388.008 135.346C388.268 135.091 388.608 134.842 389.026 134.601C389.227 134.484 389.419 134.383 389.6 134.296C389.786 134.208 389.955 134.132 390.109 134.071C390.259 134.007 390.388 133.956 390.494 133.917C390.605 133.876 390.682 133.845 390.725 133.825C390.433 133.656 390.163 133.509 389.914 133.384C389.661 133.256 389.415 133.169 389.174 133.121C388.929 133.071 388.679 133.069 388.422 133.117C388.165 133.165 387.881 133.279 387.569 133.459ZM392.329 136.556C392.621 136.387 392.831 136.193 392.957 135.975C393.087 135.754 393.146 135.501 393.134 135.216L391.554 134.303C391.522 134.322 391.465 134.35 391.382 134.389C391.295 134.425 391.199 134.47 391.092 134.522C390.985 134.57 390.877 134.621 390.766 134.676C390.66 134.728 390.569 134.776 390.494 134.819C390.21 134.983 389.975 135.14 389.79 135.288C389.608 135.433 389.486 135.577 389.423 135.718C389.359 135.855 389.365 135.991 389.44 136.125C389.515 136.255 389.669 136.387 389.902 136.521C390.348 136.779 390.772 136.903 391.175 136.894C391.577 136.88 391.962 136.767 392.329 136.556ZM396.511 131.223C396.965 131.485 397.386 131.688 397.772 131.834C398.163 131.978 398.526 132.071 398.862 132.115C399.193 132.156 399.499 132.15 399.779 132.097C400.056 132.043 400.308 131.949 400.537 131.817C400.853 131.635 401.096 131.426 401.265 131.192C401.435 130.957 401.5 130.708 401.461 130.443L397.897 128.386C397.372 128.42 396.898 128.479 396.476 128.564C396.05 128.646 395.679 128.778 395.363 128.96C395.094 129.115 394.933 129.279 394.877 129.452C394.818 129.623 394.846 129.803 394.96 129.992C395.075 130.181 395.266 130.378 395.535 130.583C395.803 130.788 396.129 131.002 396.511 131.223ZM393.942 128.488C394.372 128.24 394.836 128.061 395.333 127.952C395.831 127.842 396.369 127.805 396.949 127.839L393.391 125.785L394.765 124.698L404.806 130.495L403.639 131.168L402.29 130.751C402.365 130.904 402.4 131.065 402.396 131.236C402.392 131.403 402.351 131.568 402.272 131.732C402.193 131.896 402.08 132.054 401.934 132.207C401.788 132.36 401.609 132.497 401.396 132.62C400.879 132.919 400.34 133.114 399.779 133.205C399.215 133.294 398.647 133.303 398.074 133.232C397.498 133.159 396.928 133.019 396.363 132.812C395.795 132.602 395.248 132.346 394.723 132.043C394.254 131.772 393.871 131.48 393.575 131.168C393.279 130.851 393.088 130.536 393.001 130.221C392.918 129.904 392.949 129.597 393.095 129.298C393.245 128.998 393.528 128.728 393.942 128.488ZM406.087 126.754C406.339 126.9 406.584 127.018 406.821 127.11C407.054 127.198 407.283 127.255 407.508 127.281C407.729 127.303 407.948 127.293 408.165 127.25C408.378 127.204 408.589 127.121 408.798 127C409.094 126.829 409.317 126.639 409.467 126.429C409.617 126.22 409.698 125.964 409.71 125.661L404.447 122.622L406.081 121.679L413.079 125.719L411.906 126.395L410.533 125.965C410.616 126.108 410.665 126.26 410.681 126.419C410.701 126.576 410.681 126.736 410.622 126.898C410.562 127.055 410.46 127.21 410.314 127.363C410.176 127.515 409.988 127.66 409.751 127.797C408.915 128.28 408.054 128.514 407.17 128.501C406.286 128.487 405.361 128.201 404.394 127.643L400.072 125.148L401.688 124.215L406.087 126.754ZM418.539 122.723C417.955 123.061 417.355 123.293 416.74 123.421C416.124 123.548 415.516 123.594 414.916 123.557C414.32 123.518 413.744 123.411 413.187 123.236C412.631 123.056 412.116 122.829 411.642 122.556C411.129 122.26 410.721 121.939 410.417 121.595C410.113 121.247 409.933 120.895 409.878 120.539C409.827 120.182 409.91 119.828 410.127 119.48C410.348 119.129 410.723 118.801 411.252 118.496C411.512 118.345 411.771 118.216 412.027 118.109C412.288 118 412.544 117.909 412.797 117.836C413.045 117.761 413.288 117.703 413.525 117.662C413.758 117.618 413.983 117.586 414.2 117.566L414.91 118.4C414.741 118.407 414.553 118.426 414.348 118.458C414.147 118.488 413.941 118.529 413.732 118.581C413.523 118.633 413.316 118.698 413.111 118.776C412.905 118.853 412.716 118.942 412.542 119.042C412.211 119.257 411.988 119.467 411.873 119.675C411.755 119.88 411.731 120.087 411.802 120.297C411.873 120.506 412.033 120.719 412.282 120.936C412.534 121.15 412.858 121.371 413.253 121.599C414.085 122.08 414.869 122.347 415.603 122.402C416.337 122.457 417.002 122.312 417.598 121.968C417.985 121.745 418.255 121.52 418.409 121.295C418.559 121.067 418.654 120.83 418.693 120.584L420.144 120.997C420.108 121.114 420.057 121.239 419.99 121.373C419.923 121.508 419.828 121.649 419.706 121.797C419.579 121.943 419.421 122.093 419.232 122.248C419.047 122.405 418.816 122.564 418.539 122.723ZM424.971 119.01C424.62 119.213 424.267 119.353 423.911 119.431C423.552 119.506 423.183 119.521 422.804 119.475C422.421 119.427 422.021 119.321 421.602 119.157C421.18 118.991 420.728 118.769 420.247 118.491L416.677 116.43L415.493 117.113L414.741 116.679L416.032 115.934L413.646 114.557L414.771 113.456L417.547 115.059L419.53 113.914L420.282 114.348L418.299 115.493L422.396 117.858C422.794 118.089 423.138 118.23 423.426 118.282C423.714 118.33 423.988 118.279 424.249 118.128C424.399 118.042 424.523 117.922 424.622 117.77C424.724 117.615 424.821 117.434 424.912 117.226L426.368 117.547C426.329 117.643 426.276 117.749 426.208 117.865C426.141 117.982 426.053 118.103 425.942 118.231C425.832 118.359 425.697 118.488 425.539 118.621C425.382 118.753 425.192 118.883 424.971 119.01ZM428.585 116.767L421.587 112.727L423.191 111.801L430.189 115.841L428.585 116.767ZM419.255 111.504C419.124 111.428 419.026 111.344 418.959 111.251C418.891 111.157 418.858 111.063 418.858 110.967C418.858 110.871 418.889 110.778 418.953 110.687C419.012 110.593 419.105 110.51 419.231 110.437C419.361 110.362 419.507 110.307 419.669 110.273C419.831 110.234 419.997 110.216 420.166 110.218C420.332 110.218 420.496 110.238 420.658 110.277C420.819 110.315 420.963 110.371 421.09 110.444C421.22 110.519 421.317 110.605 421.38 110.7C421.447 110.794 421.479 110.889 421.475 110.987C421.475 111.083 421.441 111.178 421.374 111.271C421.311 111.362 421.218 111.443 421.096 111.514C420.962 111.591 420.815 111.648 420.658 111.685C420.496 111.719 420.332 111.736 420.166 111.736C420 111.731 419.839 111.711 419.681 111.674C419.523 111.633 419.381 111.576 419.255 111.504ZM434.667 112.189C434.991 112.002 435.196 111.809 435.283 111.608C435.37 111.403 435.364 111.197 435.265 110.989C435.167 110.778 434.993 110.568 434.744 110.361C434.492 110.151 434.19 109.945 433.838 109.742C433.491 109.542 433.136 109.368 432.773 109.223C432.41 109.077 432.047 108.976 431.683 108.922C431.32 108.863 430.961 108.858 430.606 108.908C430.251 108.954 429.911 109.07 429.588 109.257C429.264 109.444 429.063 109.639 428.984 109.845C428.901 110.047 428.909 110.255 429.008 110.467C429.106 110.674 429.284 110.884 429.54 111.095C429.793 111.305 430.091 111.509 430.434 111.707C430.62 111.814 430.819 111.92 431.032 112.025C431.245 112.125 431.468 112.218 431.701 112.302C431.934 112.382 432.175 112.448 432.423 112.5C432.668 112.55 432.917 112.575 433.169 112.575C433.422 112.575 433.675 112.546 433.927 112.486C434.18 112.427 434.426 112.328 434.667 112.189ZM435.431 108.823C435.932 109.112 436.343 109.42 436.662 109.745C436.982 110.071 437.175 110.406 437.243 110.75C437.314 111.092 437.237 111.439 437.012 111.793C436.783 112.144 436.372 112.49 435.78 112.832C435.188 113.173 434.588 113.41 433.98 113.543C433.369 113.672 432.763 113.719 432.163 113.683C431.567 113.644 430.987 113.532 430.422 113.348C429.858 113.163 429.325 112.926 428.824 112.637C428.319 112.345 427.904 112.035 427.581 111.707C427.261 111.377 427.068 111.04 427.001 110.696C426.937 110.349 427.016 110.001 427.237 109.65C427.462 109.297 427.869 108.95 428.457 108.611C429.045 108.271 429.643 108.038 430.251 107.91C430.863 107.78 431.466 107.735 432.062 107.773C432.662 107.81 433.246 107.921 433.815 108.108C434.387 108.293 434.926 108.531 435.431 108.823ZM436.458 105.311C436.398 105.154 436.377 104.989 436.392 104.816C436.408 104.638 436.46 104.463 436.546 104.289C436.637 104.114 436.763 103.945 436.925 103.784C437.083 103.619 437.275 103.472 437.499 103.343C437.926 103.097 438.35 102.922 438.772 102.82C439.195 102.717 439.621 102.678 440.051 102.704C440.481 102.729 440.915 102.817 441.354 102.97C441.796 103.12 442.246 103.328 442.703 103.592L447.055 106.104L445.427 107.044L440.998 104.488C440.45 104.171 439.952 103.989 439.506 103.941C439.06 103.888 438.632 103.981 438.222 104.218C438.056 104.313 437.914 104.427 437.795 104.559C437.677 104.691 437.582 104.826 437.511 104.963C437.44 105.099 437.393 105.231 437.369 105.359C437.346 105.487 437.342 105.594 437.357 105.68L442.573 108.691L440.945 109.631L433.947 105.591L435.173 104.884L436.458 105.311ZM443.896 96.9774L444.505 97.4115L447.252 99.5441L446.264 100.115L442.658 98.4778L441.93 98.1121L443.896 96.9774ZM441.303 98.4744L441.847 98.8572L444.659 101.041L443.671 101.612L439.982 99.9338L439.337 99.6091L441.303 98.4744ZM192.409 278.044L193.534 273.82L195.174 274.418L194.256 277.689L199.928 277.155L200.958 278.099L193.108 278.769L192.409 278.044ZM197.562 268.35L199.374 267.83L206.496 276.105L204.708 276.624L197.562 268.35ZM208.493 269.969C208.213 270.044 207.931 270.104 207.647 270.15C207.362 270.195 207.078 270.216 206.794 270.211C206.51 270.202 206.226 270.161 205.942 270.088C205.657 270.015 205.375 269.898 205.095 269.736C204.787 269.558 204.578 269.362 204.467 269.148C204.357 268.934 204.335 268.714 204.402 268.489C204.465 268.261 204.611 268.033 204.84 267.805C205.069 267.573 205.367 267.351 205.734 267.139C206.026 266.97 206.34 266.821 206.676 266.691C207.011 266.561 207.329 266.453 207.629 266.366C207.929 266.275 208.189 266.207 208.41 266.161C208.635 266.113 208.783 266.087 208.854 266.083L209.523 266.913C209.417 266.92 209.259 266.947 209.05 266.995C208.837 267.041 208.606 267.101 208.357 267.176C208.108 267.247 207.856 267.331 207.599 267.429C207.343 267.527 207.116 267.633 206.918 267.747C206.709 267.868 206.549 267.985 206.439 268.099C206.328 268.208 206.259 268.312 206.232 268.41C206.208 268.506 206.222 268.596 206.273 268.68C206.324 268.76 206.407 268.833 206.522 268.899C206.613 268.951 206.709 268.989 206.812 269.012C206.914 269.034 207.025 269.044 207.143 269.039C207.262 269.034 207.392 269.018 207.534 268.991C207.676 268.964 207.834 268.927 208.008 268.882L209.529 268.475C209.952 268.363 210.35 268.277 210.725 268.215C211.096 268.151 211.451 268.12 211.791 268.12C212.126 268.117 212.442 268.151 212.738 268.222C213.038 268.29 213.32 268.401 213.585 268.554C213.924 268.75 214.165 268.961 214.307 269.189C214.449 269.413 214.496 269.645 214.449 269.887C214.406 270.126 214.269 270.368 214.04 270.615C213.815 270.858 213.5 271.098 213.093 271.332C212.754 271.528 212.404 271.693 212.045 271.828C211.694 271.962 211.366 272.074 211.063 272.163C210.759 272.247 210.494 272.311 210.269 272.354C210.048 272.395 209.902 272.418 209.831 272.423L209.144 271.582C209.223 271.577 209.373 271.552 209.594 271.507C209.811 271.459 210.056 271.397 210.328 271.322C210.601 271.247 210.875 271.159 211.151 271.059C211.432 270.956 211.672 270.847 211.874 270.731C212.032 270.64 212.172 270.543 212.294 270.44C212.412 270.335 212.493 270.229 212.537 270.122C212.576 270.013 212.57 269.905 212.519 269.798C212.468 269.686 212.349 269.577 212.164 269.47C211.955 269.349 211.7 269.295 211.4 269.309C211.1 269.323 210.763 269.378 210.388 269.476L208.493 269.969ZM219.933 267.377C219.582 267.579 219.229 267.719 218.874 267.797C218.515 267.872 218.146 267.887 217.767 267.841C217.384 267.794 216.983 267.688 216.565 267.524C216.143 267.357 215.691 267.135 215.209 266.857L211.639 264.796L210.455 265.48L209.703 265.046L210.994 264.301L208.608 262.923L209.733 261.823L212.509 263.426L214.493 262.281L215.245 262.715L213.261 263.86L217.358 266.225C217.757 266.455 218.1 266.596 218.388 266.649C218.676 266.696 218.951 266.645 219.211 266.495C219.361 266.408 219.485 266.289 219.584 266.136C219.687 265.981 219.783 265.8 219.874 265.592L221.331 265.914C221.291 266.009 221.238 266.115 221.171 266.232C221.104 266.348 221.015 266.47 220.904 266.597C220.794 266.725 220.66 266.855 220.502 266.987C220.344 267.119 220.154 267.249 219.933 267.377ZM219.142 260.902C219.071 260.724 219.028 260.556 219.012 260.396C219 260.234 219.022 260.081 219.077 259.935C219.137 259.787 219.233 259.644 219.367 259.508C219.502 259.371 219.681 259.238 219.906 259.108C220.032 259.035 220.165 258.965 220.303 258.899L221.659 259.682C221.58 259.7 221.477 259.741 221.351 259.805C221.22 259.866 221.086 259.937 220.948 260.017C220.664 260.181 220.457 260.382 220.327 260.622C220.196 260.856 220.115 261.101 220.084 261.357L225.086 264.245L223.458 265.184L216.461 261.145L217.799 260.372L219.142 260.902ZM229.15 261.899L222.152 257.859L223.757 256.933L230.754 260.972L229.15 261.899ZM219.82 256.635C219.69 256.56 219.591 256.476 219.524 256.382C219.457 256.289 219.423 256.194 219.423 256.099C219.423 256.003 219.455 255.91 219.518 255.818C219.577 255.725 219.67 255.642 219.796 255.569C219.926 255.494 220.072 255.439 220.234 255.405C220.396 255.366 220.562 255.348 220.731 255.35C220.897 255.35 221.061 255.37 221.223 255.408C221.385 255.447 221.529 255.503 221.655 255.576C221.785 255.651 221.882 255.736 221.945 255.832C222.012 255.926 222.044 256.021 222.04 256.119C222.04 256.215 222.006 256.309 221.939 256.403C221.876 256.494 221.783 256.575 221.661 256.646C221.527 256.723 221.381 256.78 221.223 256.816C221.061 256.851 220.897 256.868 220.731 256.868C220.566 256.863 220.404 256.843 220.246 256.806C220.088 256.765 219.946 256.708 219.82 256.635ZM228.756 255.216C228.697 255.058 228.675 254.893 228.691 254.72C228.706 254.542 228.758 254.367 228.845 254.194C228.935 254.018 229.062 253.85 229.223 253.688C229.381 253.524 229.573 253.377 229.798 253.247C230.224 253.001 230.648 252.827 231.071 252.724C231.493 252.621 231.919 252.583 232.349 252.608C232.78 252.633 233.214 252.722 233.652 252.874C234.094 253.025 234.544 253.232 235.002 253.496L239.353 256.008L237.725 256.948L233.297 254.392C232.748 254.075 232.251 253.893 231.805 253.845C231.359 253.793 230.93 253.885 230.52 254.122C230.354 254.218 230.212 254.331 230.094 254.464C229.975 254.596 229.881 254.73 229.81 254.867C229.738 255.004 229.691 255.136 229.667 255.263C229.644 255.391 229.64 255.498 229.656 255.585L234.871 258.596L233.243 259.536L226.246 255.496L227.471 254.788L228.756 255.216ZM245.956 254.213C246.391 253.962 246.738 253.741 246.998 253.55C247.263 253.361 247.442 253.189 247.537 253.034C247.64 252.879 247.657 252.736 247.59 252.606C247.527 252.474 247.381 252.342 247.152 252.21C246.896 252.062 246.639 251.984 246.383 251.978C246.13 251.968 245.85 252.016 245.542 252.121C245.234 252.226 244.881 252.382 244.482 252.589C244.084 252.797 243.616 253.042 243.079 253.324C243.032 253.415 243.004 253.516 242.996 253.625C242.988 253.734 243 253.844 243.032 253.953C243.071 254.062 243.13 254.169 243.209 254.274C243.296 254.379 243.411 254.473 243.553 254.555C243.742 254.664 243.934 254.731 244.127 254.756C244.324 254.779 244.522 254.77 244.719 254.729C244.92 254.69 245.124 254.625 245.329 254.534C245.538 254.441 245.747 254.334 245.956 254.213ZM241.048 250.853C241.179 250.746 241.279 250.636 241.35 250.522C241.425 250.405 241.461 250.287 241.457 250.166C241.449 250.043 241.394 249.918 241.291 249.79C241.189 249.663 241.025 249.534 240.8 249.404C240.413 249.181 240.03 249.085 239.651 249.117C239.276 249.147 238.868 249.289 238.426 249.544C238.225 249.66 238.057 249.778 237.923 249.896C237.792 250.012 237.711 250.13 237.68 250.248C237.644 250.364 237.668 250.485 237.751 250.61C237.834 250.731 237.988 250.857 238.213 250.986C238.367 251.075 238.534 251.149 238.716 251.209C238.901 251.266 239.093 251.308 239.29 251.335C239.484 251.36 239.677 251.371 239.87 251.369C240.064 251.362 240.247 251.343 240.421 251.311L241.048 250.853ZM240.747 248.293C241.066 248.314 241.339 248.346 241.564 248.389C241.785 248.43 241.974 248.496 242.132 248.587C242.416 248.751 242.649 248.931 242.83 249.127C243.012 249.319 243.119 249.526 243.15 249.749C243.182 249.972 243.123 250.212 242.973 250.467C242.827 250.72 242.564 250.99 242.185 251.277L240.504 252.569L241.416 252.972L243.15 252.039C243.734 251.729 244.275 251.483 244.772 251.301C245.27 251.114 245.739 250.993 246.181 250.939C246.623 250.884 247.044 250.896 247.442 250.976C247.837 251.054 248.224 251.202 248.603 251.42C249.029 251.667 249.303 251.923 249.426 252.189C249.552 252.458 249.546 252.737 249.408 253.027C249.274 253.318 249.015 253.623 248.632 253.939C248.253 254.254 247.768 254.582 247.176 254.924C246.244 255.461 245.38 255.774 244.583 255.86C243.79 255.944 243.028 255.776 242.298 255.354C242.112 255.247 241.97 255.129 241.871 254.999C241.777 254.871 241.719 254.738 241.7 254.599C241.676 254.458 241.686 254.315 241.729 254.172C241.773 254.028 241.84 253.889 241.931 253.755C241.745 253.835 241.558 253.89 241.368 253.922C241.179 253.954 240.981 253.959 240.776 253.936C240.571 253.913 240.356 253.862 240.131 253.782C239.91 253.7 239.671 253.585 239.415 253.437C239.229 253.33 239.115 253.22 239.071 253.109C239.028 252.993 239.03 252.875 239.077 252.757C239.124 252.638 239.207 252.518 239.326 252.395C239.448 252.269 239.576 252.143 239.711 252.015C239.513 252.102 239.292 252.166 239.047 252.207C238.803 252.243 238.55 252.254 238.29 252.241C238.033 252.225 237.773 252.181 237.508 252.111C237.248 252.038 237.001 251.934 236.768 251.8C236.421 251.599 236.172 251.385 236.022 251.157C235.872 250.925 235.817 250.686 235.856 250.44C235.896 250.193 236.03 249.945 236.259 249.695C236.488 249.444 236.812 249.198 237.23 248.956C237.609 248.738 237.976 248.564 238.331 248.437C238.682 248.307 239.03 248.225 239.373 248.191C239.452 248.063 239.533 247.95 239.616 247.852C239.699 247.75 239.795 247.653 239.906 247.562C240.016 247.466 240.147 247.37 240.297 247.275C240.443 247.177 240.622 247.066 240.835 246.943L241.078 246.803L242.203 247.452L240.747 248.293ZM250.713 249.375L249.049 248.764L249.973 245.523L244.36 246.057L243.295 245.093L250.529 244.443L251.867 244.847L250.713 249.375Z" fill="white"/>
<path d="M253 318L557 140" stroke="#021477" stroke-width="8" stroke-linecap="round"/>
<defs>
<linearGradient id="paint0_linear" x1="388.5" y1="29.5" x2="212.5" y2="298" gradientUnits="userSpaceOnUse">
<stop stop-color="#2B44CC"/>
<stop offset="1" stop-color="#001895"/>
</linearGradient>
</defs>
</svg>
